<svg xmlns="http://www.w3.org/2000/svg" version="1.1" xmlns:xlink="http://www.w3.org/1999/xlink" xmlns:svgjs="http://svgjs.com/svgjs" width="1440" height="560" preserveAspectRatio="none" viewBox="0 0 1440 560"><g mask="url(&quot;#SvgjsMask1010&quot;)" fill="none"><rect width="1440" height="560" x="0" y="0" fill="rgba(75, 38, 85, 1)"></rect><path d="M485.66244469804514 221.13872473856526L565.5777145576051 323.42560567976057 587.9493256392404 141.22345487900532z" fill="rgba(105, 55, 102, 1)" class="triangle-float1"></path><path d="M252.483,477.014C271.18,476.182,283.21,459.077,291.89,442.495C299.792,427.4,303.199,410.111,295.446,394.939C286.968,378.349,271.1,366.097,252.483,365.379C232.643,364.614,213.179,374.126,203.368,391.388C193.659,408.471,196.717,429.252,206.493,446.296C216.324,463.436,232.744,477.893,252.483,477.014" fill="rgba(105, 55, 102, 1)" class="triangle-float2"></path><path d="M1102.9673588824098 338.2356646223183L1016.986999729624 260.8186015109692 939.5699366182749 346.798960663755 1025.5502957710607 424.2160237751041z" fill="rgba(105, 55, 102, 1)" class="triangle-float1"></path><path d="M1223.0100771336945 283.61440342581517L1105.7357063519974 365.73080188596003 1187.8521048121422 483.0051726676572 1305.1264755938394 400.8887742075123z" fill="rgba(105, 55, 102, 1)" class="triangle-float1"></path><path d="M1030.794846588474 267.5254180544783L958.5410181372158 330.3347128836057 1088.881874606536 407.31080814592906z" fill="rgba(105, 55, 102, 1)" class="triangle-float1"></path><path d="M894.1831306286854 248.54764444993714L777.9399157901244 170.14060601618382 699.532877356371 286.38382085474484 815.7760921949321 364.7908592884981z" fill="rgba(105, 55, 102, 1)" class="triangle-float3"></path><path d="M1106.542,605.27C1149.03,605.425,1197.303,604.357,1219.522,568.142C1242.389,530.872,1226.937,483.863,1203.787,446.768C1182.207,412.189,1147.286,385.978,1106.542,387.103C1067.409,388.183,1038.776,418.606,1018.17,451.892C996.029,487.658,973.976,530.877,994.976,567.325C1015.994,603.804,1064.441,605.117,1106.542,605.27" fill="rgba(105, 55, 102, 1)" class="triangle-float3"></path><path d="M1466.9558452775186 350.38354997563147L1414.1838175474975 275.01728376126215 1338.817551333128 327.78931149128334 1391.5895790631494 403.15557770565266z" fill="rgba(105, 55, 102, 1)" class="triangle-float3"></path><path d="M402.308,620.239C439.235,618.592,470.076,595.538,489.019,563.797C508.527,531.11,516.32,491.786,499.285,457.744C480.419,420.043,444.465,390.763,402.308,390.516C359.795,390.267,324.036,419.46,303.342,456.597C283.238,492.676,279.705,536.838,301.078,572.18C321.796,606.437,362.313,622.023,402.308,620.239" fill="rgba(105, 55, 102, 1)" class="triangle-float2"></path><path d="M352.56967492943994 374.99275948555146L434.5616478682706 257.89608676410694 317.4649751468261 175.9041138252763 235.47300220799545 293.0007865467208z" fill="rgba(105, 55, 102, 1)" class="triangle-float1"></path><path d="M379.30668215346486 65.20386462700746L360.0177296212933 222.29977628177022 536.4025938082276 84.492817159179z" fill="rgba(105, 55, 102, 1)" class="triangle-float1"></path></g><defs><mask id="SvgjsMask1010"><rect width="1440" height="560" fill="#ffffff"></rect></mask><style>
            @keyframes float1 {
                0%{transform: translate(0, 0)}
                50%{transform: translate(-10px, 0)}
                100%{transform: translate(0, 0)}
            }

            .triangle-float1 {
                animation: float1 5s infinite;
            }

            @keyframes float2 {
                0%{transform: translate(0, 0)}
                50%{transform: translate(-5px, -5px)}
                100%{transform: translate(0, 0)}
            }

            .triangle-float2 {
                animation: float2 4s infinite;
            }

            @keyframes float3 {
                0%{transform: translate(0, 0)}
                50%{transform: translate(0, -10px)}
                100%{transform: translate(0, 0)}
            }

            .triangle-float3 {
                animation: float3 6s infinite;
            }
        </style></defs></svg>