<svg xmlns="http://www.w3.org/2000/svg" version="1.1" xmlns:xlink="http://www.w3.org/1999/xlink" xmlns:svgjs="http://svgjs.com/svgjs" width="1440" height="560" preserveAspectRatio="none" viewBox="0 0 1440 560"><g mask="url(&quot;#SvgjsMask1047&quot;)" fill="none"><rect width="1440" height="560" x="0" y="0" fill="rgba(24, 19, 33, 1)"></rect><path d="M1356 41L1862 40" stroke-width="6" stroke="url(#SvgjsLinearGradient1048)" stroke-linecap="round" class="Left"></path><path d="M332 132L766 131" stroke-width="10" stroke="url(#SvgjsLinearGradient1049)" stroke-linecap="round" class="Left"></path><path d="M687 393L-258 392" stroke-width="10" stroke="url(#SvgjsLinearGradient1050)" stroke-linecap="round" class="Left"></path><path d="M1131 473L1749 472" stroke-width="10" stroke="url(#SvgjsLinearGradient1050)" stroke-linecap="round" class="Left"></path><path d="M42 546L1055 545" stroke-width="10" stroke="url(#SvgjsLinearGradient1051)" stroke-linecap="round" class="Right"></path><path d="M171 541L-401 540" stroke-width="6" stroke="url(#SvgjsLinearGradient1052)" stroke-linecap="round" class="Right"></path><path d="M1245 310L769 309" stroke-width="8" stroke="url(#SvgjsLinearGradient1049)" stroke-linecap="round" class="Left"></path><path d="M412 61L29 60" stroke-width="10" stroke="url(#SvgjsLinearGradient1048)" stroke-linecap="round" class="Left"></path><path d="M1230 361L1624 360" stroke-width="8" stroke="url(#SvgjsLinearGradient1048)" stroke-linecap="round" class="Left"></path><path d="M162 396L866 395" stroke-width="8" stroke="url(#SvgjsLinearGradient1050)" stroke-linecap="round" class="Left"></path><path d="M1008 252L136 251" stroke-width="10" stroke="url(#SvgjsLinearGradient1050)" stroke-linecap="round" class="Left"></path><path d="M1273 406L321 405" stroke-width="8" stroke="url(#SvgjsLinearGradient1053)" stroke-linecap="round" class="Right"></path><path d="M978 466L386 465" stroke-width="10" stroke="url(#SvgjsLinearGradient1052)" stroke-linecap="round" class="Right"></path><path d="M442 80L-398 79" stroke-width="10" stroke="url(#SvgjsLinearGradient1050)" stroke-linecap="round" class="Left"></path></g><defs><mask id="SvgjsMask1047"><rect width="1440" height="560" fill="#ffffff"></rect></mask><linearGradient x1="100%" y1="0%" x2="0%" y2="0%" id="SvgjsLinearGradient1048"><stop stop-color="rgba(58, 16, 93, 0)" offset="0"></stop><stop stop-color="rgba(58, 16, 93, 1)" offset="1"></stop></linearGradient><linearGradient x1="100%" y1="0%" x2="0%" y2="0%" id="SvgjsLinearGradient1049"><stop stop-color="rgba(80, 72, 155, 0)" offset="0"></stop><stop stop-color="rgba(80, 72, 155, 1)" offset="1"></stop></linearGradient><linearGradient x1="100%" y1="0%" x2="0%" y2="0%" id="SvgjsLinearGradient1050"><stop stop-color="rgba(227, 119, 194, 0)" offset="0"></stop><stop stop-color="rgba(227, 119, 194, 1)" offset="1"></stop></linearGradient><linearGradient x1="0%" y1="0%" x2="100%" y2="0%" id="SvgjsLinearGradient1051"><stop stop-color="rgba(255, 55, 194, 0)" offset="0"></stop><stop stop-color="rgba(255, 55, 194, 1)" offset="1"></stop></linearGradient><linearGradient x1="0%" y1="0%" x2="100%" y2="0%" id="SvgjsLinearGradient1052"><stop stop-color="rgba(80, 72, 155, 0)" offset="0"></stop><stop stop-color="rgba(80, 72, 155, 1)" offset="1"></stop></linearGradient><linearGradient x1="0%" y1="0%" x2="100%" y2="0%" id="SvgjsLinearGradient1053"><stop stop-color="rgba(227, 119, 194, 0)" offset="0"></stop><stop stop-color="rgba(227, 119, 194, 1)" offset="1"></stop></linearGradient></defs></svg>