<svg xmlns="http://www.w3.org/2000/svg" version="1.1" xmlns:xlink="http://www.w3.org/1999/xlink" xmlns:svgjs="http://svgjs.com/svgjs" width="1440" height="560" preserveAspectRatio="none" viewBox="0 0 1440 560"><g mask="url(&quot;#SvgjsMask1018&quot;)" fill="none"><rect width="1440" height="560" x="0" y="0" fill="rgba(44, 11, 124, 1)"></rect><path d="M1389 508L655 507" stroke-width="8" stroke="url(#SvgjsLinearGradient1019)" stroke-linecap="round" class="Right"></path><path d="M253 81L-437 80" stroke-width="6" stroke="url(#SvgjsLinearGradient1020)" stroke-linecap="round" class="Left"></path><path d="M799 311L1209 310" stroke-width="6" stroke="url(#SvgjsLinearGradient1019)" stroke-linecap="round" class="Right"></path><path d="M1292 438L2225 437" stroke-width="8" stroke="url(#SvgjsLinearGradient1020)" stroke-linecap="round" class="Left"></path><path d="M497 534L1052 533" stroke-width="8" stroke="url(#SvgjsLinearGradient1020)" stroke-linecap="round" class="Left"></path><path d="M1342 33L478 32" stroke-width="8" stroke="url(#SvgjsLinearGradient1019)" stroke-linecap="round" class="Right"></path><path d="M768 508L226 507" stroke-width="6" stroke="url(#SvgjsLinearGradient1019)" stroke-linecap="round" class="Right"></path><path d="M663 201L-302 200" stroke-width="6" stroke="url(#SvgjsLinearGradient1019)" stroke-linecap="round" class="Right"></path><path d="M884 289L1951 288" stroke-width="8" stroke="url(#SvgjsLinearGradient1020)" stroke-linecap="round" class="Left"></path><path d="M657 63L1623 62" stroke-width="6" stroke="url(#SvgjsLinearGradient1020)" stroke-linecap="round" class="Left"></path><path d="M1320 370L736 369" stroke-width="10" stroke="url(#SvgjsLinearGradient1019)" stroke-linecap="round" class="Right"></path><path d="M735 338L1742 337" stroke-width="10" stroke="url(#SvgjsLinearGradient1020)" stroke-linecap="round" class="Left"></path><path d="M1224 503L2149 502" stroke-width="10" stroke="url(#SvgjsLinearGradient1020)" stroke-linecap="round" class="Left"></path><path d="M1440 389L2315 388" stroke-width="10" stroke="url(#SvgjsLinearGradient1020)" stroke-linecap="round" class="Left"></path></g><defs><mask id="SvgjsMask1018"><rect width="1440" height="560" fill="#ffffff"></rect></mask><linearGradient x1="0%" y1="0%" x2="100%" y2="0%" id="SvgjsLinearGradient1019"><stop stop-color="rgba(35, 11, 55, 0)" offset="0"></stop><stop stop-color="rgba(35, 11, 55, 1)" offset="1"></stop></linearGradient><linearGradient x1="100%" y1="0%" x2="0%" y2="0%" id="SvgjsLinearGradient1020"><stop stop-color="rgba(35, 11, 55, 0)" offset="0"></stop><stop stop-color="rgba(35, 11, 55, 1)" offset="1"></stop></linearGradient></defs></svg>