<?xml version="1.0" standalone="no"?><svg xmlns:xlink="http://www.w3.org/1999/xlink" xmlns="http://www.w3.org/2000/svg" viewBox="0 0 1200 672.0035252643949" preserveAspectRatio="xMaxYMax slice"><g transform="scale(1.101645123384254)"><rect x="0" y="0" width="1089.2857142857142" height="610" fill="#9978e6"/><rect x="217.85714285714283" y="43.57142857142857" width="43.57142857142857" height="43.57142857142857" fill="#9978e6"/><rect x="217.85714285714283" y="87.14285714285714" width="43.57142857142857" height="43.57142857142857" fill="#9978e6"/><rect x="239.64" y="108.93" width="21.79" height="21.79" fill="#7265aa"/><rect x="305" y="87.14285714285714" width="43.57142857142857" height="43.57142857142857" fill="#9978e6"/><rect x="697.1428571428571" y="87.14285714285714" width="43.57142857142857" height="43.57142857142857" fill="#9978e6"/><rect x="871.4285714285713" y="87.14285714285714" width="43.57142857142857" height="43.57142857142857" fill="#9978e6"/><rect x="893.21" y="87.14" width="21.79" height="21.79" fill="#a183e8"/><rect x="958.5714285714286" y="87.14285714285714" width="43.57142857142857" height="43.57142857142857" fill="#9978e6"/><rect x="958.57" y="87.14" width="21.79" height="21.79" fill="#c2aef0"/><rect x="958.57" y="108.93" width="21.79" height="21.79" fill="#7667af"/><rect x="980.36" y="108.93" width="21.79" height="21.79" fill="#534778"/><rect x="915" y="130.71428571428572" width="43.57142857142857" height="43.57142857142857" fill="#9978e6"/><rect x="915" y="130.71" width="21.79" height="21.79" fill="#ebe5fa"/><rect x="958.5714285714286" y="130.71428571428572" width="43.57142857142857" height="43.57142857142857" fill="#9978e6"/><rect x="958.57" y="130.71" width="21.79" height="21.79" fill="#7e65bc"/><rect x="980.36" y="130.71" width="21.79" height="21.79" fill="#9978e5"/><rect x="1045.7142857142858" y="130.71428571428572" width="43.57142857142857" height="43.57142857142857" fill="#9978e6"/><rect x="1067.5" y="130.71" width="21.79" height="21.79" fill="#292a36"/><rect x="1045.71" y="152.5" width="21.79" height="21.79" fill="#584b7f"/><rect x="1067.5" y="152.5" width="21.79" height="21.79" fill="#9676e1"/><rect x="43.57142857142857" y="174.28571428571428" width="43.57142857142857" height="43.57142857142857" fill="#9978e6"/><rect x="43.57" y="174.29" width="21.79" height="21.79" fill="#403a59"/><rect x="87.14285714285714" y="174.28571428571428" width="43.57142857142857" height="43.57142857142857" fill="#9978e6"/><rect x="87.14" y="196.07" width="21.79" height="21.79" fill="#6c59a0"/><rect x="217.85714285714283" y="174.28571428571428" width="43.57142857142857" height="43.57142857142857" fill="#9978e6"/><rect x="261.42857142857144" y="174.28571428571428" width="43.57142857142857" height="43.57142857142857" fill="#9978e6"/><rect x="283.21" y="174.29" width="21.79" height="21.79" fill="#312f42"/><rect x="283.21" y="196.07" width="21.79" height="21.79" fill="#54567c"/><rect x="697.1428571428571" y="174.28571428571428" width="43.57142857142857" height="43.57142857142857" fill="#9978e6"/><rect x="718.93" y="174.29" width="21.79" height="21.79" fill="#5d5b89"/><rect x="718.93" y="196.07" width="21.79" height="21.79" fill="#7f6bbd"/><rect x="915" y="174.28571428571428" width="43.57142857142857" height="43.57142857142857" fill="#9978e6"/><rect x="936.79" y="174.29" width="21.79" height="21.79" fill="#9576e0"/><rect x="915" y="196.07" width="21.79" height="21.79" fill="#d8ccf6"/><rect x="43.57142857142857" y="217.85714285714283" width="43.57142857142857" height="43.57142857142857" fill="#9978e6"/><rect x="65.36" y="217.86" width="21.79" height="21.79" fill="#9e7ee7"/><rect x="65.36" y="239.64" width="21.79" height="21.79" fill="#645393"/><rect x="174.28571428571428" y="217.85714285714283" width="43.57142857142857" height="43.57142857142857" fill="#9978e6"/><rect x="174.29" y="217.86" width="21.79" height="21.79" fill="#665f98"/><rect x="196.07" y="239.64" width="21.79" height="21.79" fill="#bca7ef"/><rect x="392.1428571428571" y="217.85714285714283" width="43.57142857142857" height="43.57142857142857" fill="#9978e6"/><rect x="413.93" y="217.86" width="21.79" height="21.79" fill="#655494"/><rect x="413.93" y="239.64" width="21.79" height="21.79" fill="#d4c6f4"/><rect x="435.71428571428567" y="217.85714285714283" width="43.57142857142857" height="43.57142857142857" fill="#9978e6"/><rect x="435.71" y="217.86" width="21.79" height="21.79" fill="#b198ec"/><rect x="610" y="217.85714285714283" width="43.57142857142857" height="43.57142857142857" fill="#9978e6"/><rect x="610" y="217.86" width="21.79" height="21.79" fill="#8a70ce"/><rect x="697.1428571428571" y="217.85714285714283" width="43.57142857142857" height="43.57142857142857" fill="#9978e6"/><rect x="697.14" y="239.64" width="21.79" height="21.79" fill="#e6ddf9"/><rect x="718.93" y="239.64" width="21.79" height="21.79" fill="#ae94eb"/><rect x="958.5714285714286" y="217.85714285714283" width="43.57142857142857" height="43.57142857142857" fill="#9978e6"/><rect x="958.57" y="217.86" width="21.79" height="21.79" fill="#9072d8"/><rect x="980.36" y="239.64" width="21.79" height="21.79" fill="#473f64"/><rect x="87.14285714285714" y="261.42857142857144" width="43.57142857142857" height="43.57142857142857" fill="#9978e6"/><rect x="87.14" y="283.21" width="21.79" height="21.79" fill="#bba6ee"/><rect x="130.71428571428572" y="261.42857142857144" width="43.57142857142857" height="43.57142857142857" fill="#9978e6"/><rect x="130.71" y="261.43" width="21.79" height="21.79" fill="#61518d"/><rect x="152.5" y="261.43" width="21.79" height="21.79" fill="#494068"/><rect x="130.71" y="283.21" width="21.79" height="21.79" fill="#e0d6f7"/><rect x="152.5" y="283.21" width="21.79" height="21.79" fill="#514675"/><rect x="174.28571428571428" y="261.42857142857144" width="43.57142857142857" height="43.57142857142857" fill="#9978e6"/><rect x="196.07" y="261.43" width="21.79" height="21.79" fill="#3a3650"/><rect x="174.29" y="283.21" width="21.79" height="21.79" fill="#7466ae"/><rect x="196.07" y="283.21" width="21.79" height="21.79" fill="#886ccc"/><rect x="217.85714285714283" y="261.42857142857144" width="43.57142857142857" height="43.57142857142857" fill="#9978e6"/><rect x="239.64" y="261.43" width="21.79" height="21.79" fill="#9374dd"/><rect x="217.86" y="283.21" width="21.79" height="21.79" fill="#7064a6"/><rect x="261.42857142857144" y="261.42857142857144" width="43.57142857142857" height="43.57142857142857" fill="#9978e6"/><rect x="261.43" y="261.43" width="21.79" height="21.79" fill="#bba5ee"/><rect x="261.43" y="283.21" width="21.79" height="21.79" fill="#413b5c"/><rect x="305" y="261.42857142857144" width="43.57142857142857" height="43.57142857142857" fill="#9978e6"/><rect x="348.57142857142856" y="261.42857142857144" width="43.57142857142857" height="43.57142857142857" fill="#9978e6"/><rect x="348.57" y="283.21" width="21.79" height="21.79" fill="#5f5c8d"/><rect x="740.7142857142857" y="261.42857142857144" width="43.57142857142857" height="43.57142857142857" fill="#9978e6"/><rect x="740.71" y="283.21" width="21.79" height="21.79" fill="#7d64b9"/><rect x="762.5" y="283.21" width="21.79" height="21.79" fill="#272932"/><rect x="827.8571428571428" y="261.42857142857144" width="43.57142857142857" height="43.57142857142857" fill="#9978e6"/><rect x="849.64" y="261.43" width="21.79" height="21.79" fill="#8970ce"/><rect x="849.64" y="283.21" width="21.79" height="21.79" fill="#7660af"/><rect x="871.4285714285713" y="261.42857142857144" width="43.57142857142857" height="43.57142857142857" fill="#9978e6"/><rect x="893.21" y="261.43" width="21.79" height="21.79" fill="#565880"/><rect x="1002.1428571428571" y="261.42857142857144" width="43.57142857142857" height="43.57142857142857" fill="#9978e6"/><rect x="1002.14" y="261.43" width="21.79" height="21.79" fill="#efe9fb"/><rect x="1045.7142857142858" y="261.42857142857144" width="43.57142857142857" height="43.57142857142857" fill="#9978e6"/><rect x="43.57142857142857" y="305" width="43.57142857142857" height="43.57142857142857" fill="#9978e6"/><rect x="43.57" y="305" width="21.79" height="21.79" fill="#9c7de7"/><rect x="65.36" y="305" width="21.79" height="21.79" fill="#7265aa"/><rect x="43.57" y="326.79" width="21.79" height="21.79" fill="#efeafb"/><rect x="65.36" y="326.79" width="21.79" height="21.79" fill="#2a2b37"/><rect x="87.14285714285714" y="305" width="43.57142857142857" height="43.57142857142857" fill="#9978e6"/><rect x="87.14" y="305" width="21.79" height="21.79" fill="#3f3a59"/><rect x="108.93" y="305" width="21.79" height="21.79" fill="#e0d6f7"/><rect x="87.14" y="326.79" width="21.79" height="21.79" fill="#a98dea"/><rect x="130.71428571428572" y="305" width="43.57142857142857" height="43.57142857142857" fill="#9978e6"/><rect x="130.71" y="305" width="21.79" height="21.79" fill="#575880"/><rect x="130.71" y="326.79" width="21.79" height="21.79" fill="#9174da"/><rect x="217.85714285714283" y="305" width="43.57142857142857" height="43.57142857142857" fill="#9978e6"/><rect x="217.86" y="305" width="21.79" height="21.79" fill="#333146"/><rect x="239.64" y="305" width="21.79" height="21.79" fill="#faf8fe"/><rect x="217.86" y="326.79" width="21.79" height="21.79" fill="#282a35"/><rect x="305" y="305" width="43.57142857142857" height="43.57142857142857" fill="#9978e6"/><rect x="326.79" y="305" width="21.79" height="21.79" fill="#7e6bbd"/><rect x="305" y="326.79" width="21.79" height="21.79" fill="#ae93eb"/><rect x="326.79" y="326.79" width="21.79" height="21.79" fill="#a588e9"/><rect x="348.57142857142856" y="305" width="43.57142857142857" height="43.57142857142857" fill="#9978e6"/><rect x="370.36" y="326.79" width="21.79" height="21.79" fill="#7660af"/><rect x="392.1428571428571" y="305" width="43.57142857142857" height="43.57142857142857" fill="#9978e6"/><rect x="392.14" y="305" width="21.79" height="21.79" fill="#5a5a86"/><rect x="413.93" y="305" width="21.79" height="21.79" fill="#7e65bb"/><rect x="392.14" y="326.79" width="21.79" height="21.79" fill="#d0c0f3"/><rect x="413.93" y="326.79" width="21.79" height="21.79" fill="#ebe4fa"/><rect x="479.2857142857143" y="305" width="43.57142857142857" height="43.57142857142857" fill="#9978e6"/><rect x="501.07" y="305" width="21.79" height="21.79" fill="#8167c0"/><rect x="479.29" y="326.79" width="21.79" height="21.79" fill="#896dcc"/><rect x="501.07" y="326.79" width="21.79" height="21.79" fill="#7566ae"/><rect x="610" y="305" width="43.57142857142857" height="43.57142857142857" fill="#9978e6"/><rect x="610" y="326.79" width="21.79" height="21.79" fill="#67609a"/><rect x="631.79" y="326.79" width="21.79" height="21.79" fill="#d1c3f4"/><rect x="653.5714285714286" y="305" width="43.57142857142857" height="43.57142857142857" fill="#9978e6"/><rect x="653.57" y="305" width="21.79" height="21.79" fill="#ede8fb"/><rect x="653.57" y="326.79" width="21.79" height="21.79" fill="#56577f"/><rect x="697.1428571428571" y="305" width="43.57142857142857" height="43.57142857142857" fill="#9978e6"/><rect x="697.14" y="305" width="21.79" height="21.79" fill="#8067bf"/><rect x="697.14" y="326.79" width="21.79" height="21.79" fill="#e0d5f7"/><rect x="718.93" y="326.79" width="21.79" height="21.79" fill="#725da9"/><rect x="740.7142857142857" y="305" width="43.57142857142857" height="43.57142857142857" fill="#9978e6"/><rect x="740.71" y="305" width="21.79" height="21.79" fill="#886ccc"/><rect x="762.5" y="305" width="21.79" height="21.79" fill="#6f64a6"/><rect x="740.71" y="326.79" width="21.79" height="21.79" fill="#fefeff"/><rect x="762.5" y="326.79" width="21.79" height="21.79" fill="#5a5a86"/><rect x="784.2857142857142" y="305" width="43.57142857142857" height="43.57142857142857" fill="#9978e6"/><rect x="784.29" y="305" width="21.79" height="21.79" fill="#4a4169"/><rect x="784.29" y="326.79" width="21.79" height="21.79" fill="#f9f7fd"/><rect x="806.07" y="326.79" width="21.79" height="21.79" fill="#313042"/><rect x="871.4285714285713" y="305" width="43.57142857142857" height="43.57142857142857" fill="#9978e6"/><rect x="893.21" y="326.79" width="21.79" height="21.79" fill="#575881"/><rect x="958.5714285714286" y="305" width="43.57142857142857" height="43.57142857142857" fill="#9978e6"/><rect x="958.57" y="305" width="21.79" height="21.79" fill="#9d7ee7"/><rect x="980.36" y="305" width="21.79" height="21.79" fill="#655494"/><rect x="958.57" y="326.79" width="21.79" height="21.79" fill="#56577f"/><rect x="980.36" y="326.79" width="21.79" height="21.79" fill="#8f71d6"/><rect x="1045.7142857142858" y="305" width="43.57142857142857" height="43.57142857142857" fill="#9978e6"/><rect x="1045.71" y="305" width="21.79" height="21.79" fill="#8d72d4"/><rect x="1067.5" y="305" width="21.79" height="21.79" fill="#2d2d3c"/><rect x="1045.71" y="326.79" width="21.79" height="21.79" fill="#d7cbf5"/><rect x="0" y="348.57142857142856" width="43.57142857142857" height="43.57142857142857" fill="#9978e6"/><rect x="21.79" y="348.57" width="21.79" height="21.79" fill="#9c7de7"/><rect x="0" y="370.36" width="21.79" height="21.79" fill="#8b71d1"/><rect x="21.79" y="370.36" width="21.79" height="21.79" fill="#b69fed"/><rect x="43.57142857142857" y="348.57142857142856" width="43.57142857142857" height="43.57142857142857" fill="#9978e6"/><rect x="43.57" y="348.57" width="21.79" height="21.79" fill="#7b69b7"/><rect x="65.36" y="348.57" width="21.79" height="21.79" fill="#eae4fa"/><rect x="43.57" y="370.36" width="21.79" height="21.79" fill="#6a619e"/><rect x="174.28571428571428" y="348.57142857142856" width="43.57142857142857" height="43.57142857142857" fill="#9978e6"/><rect x="174.29" y="348.57" width="21.79" height="21.79" fill="#3a3650"/><rect x="174.29" y="370.36" width="21.79" height="21.79" fill="#403a5a"/><rect x="196.07" y="370.36" width="21.79" height="21.79" fill="#4b416a"/><rect x="261.42857142857144" y="348.57142857142856" width="43.57142857142857" height="43.57142857142857" fill="#9978e6"/><rect x="261.43" y="348.57" width="21.79" height="21.79" fill="#af96ec"/><rect x="283.21" y="348.57" width="21.79" height="21.79" fill="#896dcd"/><rect x="261.43" y="370.36" width="21.79" height="21.79" fill="#f0ebfb"/><rect x="348.57142857142856" y="348.57142857142856" width="43.57142857142857" height="43.57142857142857" fill="#9978e6"/><rect x="348.57" y="348.57" width="21.79" height="21.79" fill="#525679"/><rect x="348.57" y="370.36" width="21.79" height="21.79" fill="#836dc3"/><rect x="370.36" y="370.36" width="21.79" height="21.79" fill="#9c7ce7"/><rect x="392.1428571428571" y="348.57142857142856" width="43.57142857142857" height="43.57142857142857" fill="#9978e6"/><rect x="392.14" y="348.57" width="21.79" height="21.79" fill="#4d5371"/><rect x="413.93" y="348.57" width="21.79" height="21.79" fill="#856ec7"/><rect x="392.14" y="370.36" width="21.79" height="21.79" fill="#836dc4"/><rect x="413.93" y="370.36" width="21.79" height="21.79" fill="#c4b2f1"/><rect x="435.71428571428567" y="348.57142857142856" width="43.57142857142857" height="43.57142857142857" fill="#9978e6"/><rect x="435.71" y="348.57" width="21.79" height="21.79" fill="#272932"/><rect x="457.5" y="348.57" width="21.79" height="21.79" fill="#8c6fd1"/><rect x="435.71" y="370.36" width="21.79" height="21.79" fill="#3b3752"/><rect x="457.5" y="370.36" width="21.79" height="21.79" fill="#323145"/><rect x="479.2857142857143" y="348.57142857142856" width="43.57142857142857" height="43.57142857142857" fill="#9978e6"/><rect x="501.07" y="348.57" width="21.79" height="21.79" fill="#aa8eea"/><rect x="522.8571428571429" y="348.57142857142856" width="43.57142857142857" height="43.57142857142857" fill="#9978e6"/><rect x="522.86" y="348.57" width="21.79" height="21.79" fill="#9d7de7"/><rect x="544.64" y="348.57" width="21.79" height="21.79" fill="#8f73d7"/><rect x="522.86" y="370.36" width="21.79" height="21.79" fill="#bba4ee"/><rect x="544.64" y="370.36" width="21.79" height="21.79" fill="#745fac"/><rect x="610" y="348.57142857142856" width="43.57142857142857" height="43.57142857142857" fill="#9978e6"/><rect x="610" y="348.57" width="21.79" height="21.79" fill="#534777"/><rect x="631.79" y="348.57" width="21.79" height="21.79" fill="#9676e1"/><rect x="610" y="370.36" width="21.79" height="21.79" fill="#7a62b5"/><rect x="697.1428571428571" y="348.57142857142856" width="43.57142857142857" height="43.57142857142857" fill="#9978e6"/><rect x="697.14" y="348.57" width="21.79" height="21.79" fill="#ccbbf2"/><rect x="697.14" y="370.36" width="21.79" height="21.79" fill="#575880"/><rect x="718.93" y="370.36" width="21.79" height="21.79" fill="#2e2e3e"/><rect x="740.7142857142857" y="348.57142857142856" width="43.57142857142857" height="43.57142857142857" fill="#9978e6"/><rect x="740.71" y="348.57" width="21.79" height="21.79" fill="#8f73d6"/><rect x="762.5" y="348.57" width="21.79" height="21.79" fill="#69579b"/><rect x="740.71" y="370.36" width="21.79" height="21.79" fill="#e0d6f7"/><rect x="784.2857142857142" y="348.57142857142856" width="43.57142857142857" height="43.57142857142857" fill="#9978e6"/><rect x="784.29" y="348.57" width="21.79" height="21.79" fill="#56577f"/><rect x="784.29" y="370.36" width="21.79" height="21.79" fill="#3a3650"/><rect x="806.07" y="370.36" width="21.79" height="21.79" fill="#b299ec"/><rect x="871.4285714285713" y="348.57142857142856" width="43.57142857142857" height="43.57142857142857" fill="#9978e6"/><rect x="871.43" y="348.57" width="21.79" height="21.79" fill="#725da9"/><rect x="893.21" y="348.57" width="21.79" height="21.79" fill="#f5f1fc"/><rect x="871.43" y="370.36" width="21.79" height="21.79" fill="#7b63b7"/><rect x="915" y="348.57142857142856" width="43.57142857142857" height="43.57142857142857" fill="#9978e6"/><rect x="936.79" y="348.57" width="21.79" height="21.79" fill="#9676e1"/><rect x="915" y="370.36" width="21.79" height="21.79" fill="#595983"/><rect x="936.79" y="370.36" width="21.79" height="21.79" fill="#f0ebfb"/><rect x="958.5714285714286" y="348.57142857142856" width="43.57142857142857" height="43.57142857142857" fill="#9978e6"/><rect x="958.57" y="348.57" width="21.79" height="21.79" fill="#4a4169"/><rect x="958.57" y="370.36" width="21.79" height="21.79" fill="#7760b0"/><rect x="1045.7142857142858" y="348.57142857142856" width="43.57142857142857" height="43.57142857142857" fill="#9978e6"/><rect x="1045.71" y="348.57" width="21.79" height="21.79" fill="#705ba5"/><rect x="1067.5" y="348.57" width="21.79" height="21.79" fill="#4d5370"/><rect x="1045.71" y="370.36" width="21.79" height="21.79" fill="#6a619d"/><rect x="1067.5" y="370.36" width="21.79" height="21.79" fill="#433c5f"/><rect x="0" y="392.1428571428571" width="43.57142857142857" height="43.57142857142857" fill="#9978e6"/><rect x="0" y="392.14" width="21.79" height="21.79" fill="#d3c4f4"/><rect x="21.79" y="392.14" width="21.79" height="21.79" fill="#525679"/><rect x="0" y="413.93" width="21.79" height="21.79" fill="#e0d6f7"/><rect x="21.79" y="413.93" width="21.79" height="21.79" fill="#ece6fa"/><rect x="130.71428571428572" y="392.1428571428571" width="43.57142857142857" height="43.57142857142857" fill="#9978e6"/><rect x="130.71" y="392.14" width="21.79" height="21.79" fill="#55497b"/><rect x="130.71" y="413.93" width="21.79" height="21.79" fill="#6b589d"/><rect x="152.5" y="413.93" width="21.79" height="21.79" fill="#aa8eea"/><rect x="174.28571428571428" y="392.1428571428571" width="43.57142857142857" height="43.57142857142857" fill="#9978e6"/><rect x="174.29" y="392.14" width="21.79" height="21.79" fill="#676099"/><rect x="174.29" y="413.93" width="21.79" height="21.79" fill="#dbcff6"/><rect x="196.07" y="413.93" width="21.79" height="21.79" fill="#7265aa"/><rect x="217.85714285714283" y="392.1428571428571" width="43.57142857142857" height="43.57142857142857" fill="#9978e6"/><rect x="217.86" y="392.14" width="21.79" height="21.79" fill="#9878e5"/><rect x="217.86" y="413.93" width="21.79" height="21.79" fill="#515577"/><rect x="239.64" y="413.93" width="21.79" height="21.79" fill="#6c62a1"/><rect x="261.42857142857144" y="392.1428571428571" width="43.57142857142857" height="43.57142857142857" fill="#9978e6"/><rect x="261.43" y="392.14" width="21.79" height="21.79" fill="#f8f6fd"/><rect x="283.21" y="392.14" width="21.79" height="21.79" fill="#836dc4"/><rect x="261.43" y="413.93" width="21.79" height="21.79" fill="#d4c7f5"/><rect x="305" y="392.1428571428571" width="43.57142857142857" height="43.57142857142857" fill="#9978e6"/><rect x="305" y="392.14" width="21.79" height="21.79" fill="#d3c5f4"/><rect x="326.79" y="392.14" width="21.79" height="21.79" fill="#7f6bbd"/><rect x="305" y="413.93" width="21.79" height="21.79" fill="#6f64a6"/><rect x="326.79" y="413.93" width="21.79" height="21.79" fill="#765fae"/><rect x="348.57142857142856" y="392.1428571428571" width="43.57142857142857" height="43.57142857142857" fill="#9978e6"/><rect x="348.57" y="392.14" width="21.79" height="21.79" fill="#af95eb"/><rect x="370.36" y="392.14" width="21.79" height="21.79" fill="#b9a3ee"/><rect x="370.36" y="413.93" width="21.79" height="21.79" fill="#585882"/><rect x="392.1428571428571" y="392.1428571428571" width="43.57142857142857" height="43.57142857142857" fill="#9978e6"/><rect x="413.93" y="392.14" width="21.79" height="21.79" fill="#353248"/><rect x="392.14" y="413.93" width="21.79" height="21.79" fill="#d1c2f4"/><rect x="413.93" y="413.93" width="21.79" height="21.79" fill="#c9b8f2"/><rect x="435.71428571428567" y="392.1428571428571" width="43.57142857142857" height="43.57142857142857" fill="#9978e6"/><rect x="435.71" y="392.14" width="21.79" height="21.79" fill="#69619c"/><rect x="457.5" y="392.14" width="21.79" height="21.79" fill="#6a619e"/><rect x="457.5" y="413.93" width="21.79" height="21.79" fill="#d8cbf5"/><rect x="479.2857142857143" y="392.1428571428571" width="43.57142857142857" height="43.57142857142857" fill="#9978e6"/><rect x="479.29" y="392.14" width="21.79" height="21.79" fill="#cebff3"/><rect x="501.07" y="392.14" width="21.79" height="21.79" fill="#b69eed"/><rect x="479.29" y="413.93" width="21.79" height="21.79" fill="#7366ac"/><rect x="501.07" y="413.93" width="21.79" height="21.79" fill="#8c72d2"/><rect x="522.8571428571429" y="392.1428571428571" width="43.57142857142857" height="43.57142857142857" fill="#9978e6"/><rect x="522.86" y="392.14" width="21.79" height="21.79" fill="#4b526e"/><rect x="522.86" y="413.93" width="21.79" height="21.79" fill="#c2aef0"/><rect x="544.64" y="413.93" width="21.79" height="21.79" fill="#7265ab"/><rect x="610" y="392.1428571428571" width="43.57142857142857" height="43.57142857142857" fill="#9978e6"/><rect x="631.79" y="392.14" width="21.79" height="21.79" fill="#a588e9"/><rect x="610" y="413.93" width="21.79" height="21.79" fill="#cab9f2"/><rect x="653.5714285714286" y="392.1428571428571" width="43.57142857142857" height="43.57142857142857" fill="#9978e6"/><rect x="653.57" y="392.14" width="21.79" height="21.79" fill="#4f5474"/><rect x="653.57" y="413.93" width="21.79" height="21.79" fill="#433c5e"/><rect x="697.1428571428571" y="392.1428571428571" width="43.57142857142857" height="43.57142857142857" fill="#9978e6"/><rect x="718.93" y="392.14" width="21.79" height="21.79" fill="#b8a1ee"/><rect x="718.93" y="413.93" width="21.79" height="21.79" fill="#f9f7fe"/><rect x="740.7142857142857" y="392.1428571428571" width="43.57142857142857" height="43.57142857142857" fill="#9978e6"/><rect x="740.71" y="392.14" width="21.79" height="21.79" fill="#272933"/><rect x="762.5" y="392.14" width="21.79" height="21.79" fill="#b7a0ed"/><rect x="740.71" y="413.93" width="21.79" height="21.79" fill="#e1d7f8"/><rect x="762.5" y="413.93" width="21.79" height="21.79" fill="#625d92"/><rect x="871.4285714285713" y="392.1428571428571" width="43.57142857142857" height="43.57142857142857" fill="#9978e6"/><rect x="871.43" y="392.14" width="21.79" height="21.79" fill="#fdfcfe"/><rect x="893.21" y="392.14" width="21.79" height="21.79" fill="#846ac5"/><rect x="871.43" y="413.93" width="21.79" height="21.79" fill="#d6c9f5"/><rect x="893.21" y="413.93" width="21.79" height="21.79" fill="#5d5b8a"/><rect x="915" y="392.1428571428571" width="43.57142857142857" height="43.57142857142857" fill="#9978e6"/><rect x="915" y="392.14" width="21.79" height="21.79" fill="#e4dbf8"/><rect x="936.79" y="392.14" width="21.79" height="21.79" fill="#685699"/><rect x="936.79" y="413.93" width="21.79" height="21.79" fill="#7a63b6"/><rect x="958.5714285714286" y="392.1428571428571" width="43.57142857142857" height="43.57142857142857" fill="#9978e6"/><rect x="958.57" y="392.14" width="21.79" height="21.79" fill="#595983"/><rect x="980.36" y="392.14" width="21.79" height="21.79" fill="#a88bea"/><rect x="958.57" y="413.93" width="21.79" height="21.79" fill="#ebe5fa"/><rect x="1002.1428571428571" y="392.1428571428571" width="43.57142857142857" height="43.57142857142857" fill="#9978e6"/><rect x="1023.93" y="392.14" width="21.79" height="21.79" fill="#af96ec"/><rect x="1002.14" y="413.93" width="21.79" height="21.79" fill="#433c5f"/><rect x="1023.93" y="413.93" width="21.79" height="21.79" fill="#5c5a88"/><rect x="1045.7142857142858" y="392.1428571428571" width="43.57142857142857" height="43.57142857142857" fill="#9978e6"/><rect x="1045.71" y="413.93" width="21.79" height="21.79" fill="#5a5985"/><rect x="0" y="435.71428571428567" width="43.57142857142857" height="43.57142857142857" fill="#9978e6"/><rect x="0" y="435.71" width="21.79" height="21.79" fill="#8067bf"/><rect x="21.79" y="435.71" width="21.79" height="21.79" fill="#9c7be7"/><rect x="0" y="457.5" width="21.79" height="21.79" fill="#705ca6"/><rect x="21.79" y="457.5" width="21.79" height="21.79" fill="#353249"/><rect x="43.57142857142857" y="435.71428571428567" width="43.57142857142857" height="43.57142857142857" fill="#9978e6"/><rect x="65.36" y="435.71" width="21.79" height="21.79" fill="#534777"/><rect x="43.57" y="457.5" width="21.79" height="21.79" fill="#6a619d"/><rect x="65.36" y="457.5" width="21.79" height="21.79" fill="#4f5475"/><rect x="87.14285714285714" y="435.71428571428567" width="43.57142857142857" height="43.57142857142857" fill="#9978e6"/><rect x="108.93" y="435.71" width="21.79" height="21.79" fill="#5c5a89"/><rect x="87.14" y="457.5" width="21.79" height="21.79" fill="#8469c5"/><rect x="108.93" y="457.5" width="21.79" height="21.79" fill="#806cc0"/><rect x="130.71428571428572" y="435.71428571428567" width="43.57142857142857" height="43.57142857142857" fill="#9978e6"/><rect x="152.5" y="435.71" width="21.79" height="21.79" fill="#3a3651"/><rect x="130.71" y="457.5" width="21.79" height="21.79" fill="#413b5c"/><rect x="152.5" y="457.5" width="21.79" height="21.79" fill="#4e4470"/><rect x="174.28571428571428" y="435.71428571428567" width="43.57142857142857" height="43.57142857142857" fill="#9978e6"/><rect x="174.29" y="435.71" width="21.79" height="21.79" fill="#7e6bbd"/><rect x="196.07" y="435.71" width="21.79" height="21.79" fill="#836dc5"/><rect x="174.29" y="457.5" width="21.79" height="21.79" fill="#e8e1f9"/><rect x="217.85714285714283" y="435.71428571428567" width="43.57142857142857" height="43.57142857142857" fill="#9978e6"/><rect x="217.86" y="435.71" width="21.79" height="21.79" fill="#f6f3fd"/><rect x="239.64" y="435.71" width="21.79" height="21.79" fill="#4d436e"/><rect x="217.86" y="457.5" width="21.79" height="21.79" fill="#514674"/><rect x="239.64" y="457.5" width="21.79" height="21.79" fill="#e1d8f8"/><rect x="261.42857142857144" y="435.71428571428567" width="43.57142857142857" height="43.57142857142857" fill="#9978e6"/><rect x="261.43" y="435.71" width="21.79" height="21.79" fill="#a68ae9"/><rect x="283.21" y="435.71" width="21.79" height="21.79" fill="#cbbaf2"/><rect x="283.21" y="457.5" width="21.79" height="21.79" fill="#7667b0"/><rect x="305" y="435.71428571428567" width="43.57142857142857" height="43.57142857142857" fill="#9978e6"/><rect x="305" y="435.71" width="21.79" height="21.79" fill="#584b80"/><rect x="326.79" y="435.71" width="21.79" height="21.79" fill="#505576"/><rect x="305" y="457.5" width="21.79" height="21.79" fill="#5e5b8c"/><rect x="326.79" y="457.5" width="21.79" height="21.79" fill="#d5c7f5"/><rect x="348.57142857142856" y="435.71428571428567" width="43.57142857142857" height="43.57142857142857" fill="#9978e6"/><rect x="348.57" y="435.71" width="21.79" height="21.79" fill="#4f5474"/><rect x="370.36" y="435.71" width="21.79" height="21.79" fill="#806cbf"/><rect x="348.57" y="457.5" width="21.79" height="21.79" fill="#68609a"/><rect x="370.36" y="457.5" width="21.79" height="21.79" fill="#dcd1f6"/><rect x="392.1428571428571" y="435.71428571428567" width="43.57142857142857" height="43.57142857142857" fill="#9978e6"/><rect x="413.93" y="435.71" width="21.79" height="21.79" fill="#eee9fb"/><rect x="392.14" y="457.5" width="21.79" height="21.79" fill="#cfbff3"/><rect x="413.93" y="457.5" width="21.79" height="21.79" fill="#9e7ee7"/><rect x="435.71428571428567" y="435.71428571428567" width="43.57142857142857" height="43.57142857142857" fill="#9978e6"/><rect x="435.71" y="435.71" width="21.79" height="21.79" fill="#c3b0f0"/><rect x="457.5" y="435.71" width="21.79" height="21.79" fill="#b8a1ee"/><rect x="457.5" y="457.5" width="21.79" height="21.79" fill="#9d7ee7"/><rect x="479.2857142857143" y="435.71428571428567" width="43.57142857142857" height="43.57142857142857" fill="#9978e6"/><rect x="479.29" y="435.71" width="21.79" height="21.79" fill="#7962b4"/><rect x="501.07" y="435.71" width="21.79" height="21.79" fill="#765fae"/><rect x="501.07" y="457.5" width="21.79" height="21.79" fill="#7660af"/><rect x="522.8571428571429" y="435.71428571428567" width="43.57142857142857" height="43.57142857142857" fill="#9978e6"/><rect x="522.86" y="435.71" width="21.79" height="21.79" fill="#f4f0fc"/><rect x="544.64" y="435.71" width="21.79" height="21.79" fill="#816cc1"/><rect x="522.86" y="457.5" width="21.79" height="21.79" fill="#846ec6"/><rect x="544.64" y="457.5" width="21.79" height="21.79" fill="#505476"/><rect x="566.4285714285714" y="435.71428571428567" width="43.57142857142857" height="43.57142857142857" fill="#9978e6"/><rect x="566.43" y="435.71" width="21.79" height="21.79" fill="#876fcb"/><rect x="588.21" y="435.71" width="21.79" height="21.79" fill="#665496"/><rect x="566.43" y="457.5" width="21.79" height="21.79" fill="#fcfbfe"/><rect x="588.21" y="457.5" width="21.79" height="21.79" fill="#f4f1fc"/><rect x="610" y="435.71428571428567" width="43.57142857142857" height="43.57142857142857" fill="#9978e6"/><rect x="610" y="435.71" width="21.79" height="21.79" fill="#bfabef"/><rect x="631.79" y="435.71" width="21.79" height="21.79" fill="#7a69b6"/><rect x="610" y="457.5" width="21.79" height="21.79" fill="#505475"/><rect x="631.79" y="457.5" width="21.79" height="21.79" fill="#c0acf0"/><rect x="697.1428571428571" y="435.71428571428567" width="43.57142857142857" height="43.57142857142857" fill="#9978e6"/><rect x="718.93" y="435.71" width="21.79" height="21.79" fill="#b69fed"/><rect x="697.14" y="457.5" width="21.79" height="21.79" fill="#676099"/><rect x="718.93" y="457.5" width="21.79" height="21.79" fill="#7660af"/><rect x="784.2857142857142" y="435.71428571428567" width="43.57142857142857" height="43.57142857142857" fill="#9978e6"/><rect x="784.29" y="435.71" width="21.79" height="21.79" fill="#6c62a0"/><rect x="806.07" y="435.71" width="21.79" height="21.79" fill="#836dc4"/><rect x="784.29" y="457.5" width="21.79" height="21.79" fill="#eae3fa"/><rect x="806.07" y="457.5" width="21.79" height="21.79" fill="#d6c8f5"/><rect x="827.8571428571428" y="435.71428571428567" width="43.57142857142857" height="43.57142857142857" fill="#9978e6"/><rect x="827.86" y="435.71" width="21.79" height="21.79" fill="#5f5c8c"/><rect x="849.64" y="435.71" width="21.79" height="21.79" fill="#6c62a0"/><rect x="827.86" y="457.5" width="21.79" height="21.79" fill="#a284e8"/><rect x="849.64" y="457.5" width="21.79" height="21.79" fill="#6a619d"/><rect x="871.4285714285713" y="435.71428571428567" width="43.57142857142857" height="43.57142857142857" fill="#9978e6"/><rect x="871.43" y="435.71" width="21.79" height="21.79" fill="#433c5e"/><rect x="893.21" y="435.71" width="21.79" height="21.79" fill="#5c4d86"/><rect x="893.21" y="457.5" width="21.79" height="21.79" fill="#e8e0f9"/><rect x="915" y="435.71428571428567" width="43.57142857142857" height="43.57142857142857" fill="#9978e6"/><rect x="915" y="435.71" width="21.79" height="21.79" fill="#b59ded"/><rect x="915" y="457.5" width="21.79" height="21.79" fill="#cdbdf3"/><rect x="936.79" y="457.5" width="21.79" height="21.79" fill="#c7b4f1"/><rect x="958.5714285714286" y="435.71428571428567" width="43.57142857142857" height="43.57142857142857" fill="#9978e6"/><rect x="958.57" y="435.71" width="21.79" height="21.79" fill="#4c526f"/><rect x="980.36" y="435.71" width="21.79" height="21.79" fill="#505475"/><rect x="958.57" y="457.5" width="21.79" height="21.79" fill="#dcd1f6"/><rect x="980.36" y="457.5" width="21.79" height="21.79" fill="#9978e5"/><rect x="1045.7142857142858" y="435.71428571428567" width="43.57142857142857" height="43.57142857142857" fill="#9978e6"/><rect x="1067.5" y="435.71" width="21.79" height="21.79" fill="#6c62a1"/><rect x="1045.71" y="457.5" width="21.79" height="21.79" fill="#54567b"/><rect x="1067.5" y="457.5" width="21.79" height="21.79" fill="#7064a8"/><rect x="0" y="479.2857142857143" width="43.57142857142857" height="43.57142857142857" fill="#9978e6"/><rect x="0" y="479.29" width="21.79" height="21.79" fill="#ae94eb"/><rect x="21.79" y="479.29" width="21.79" height="21.79" fill="#4b426c"/><rect x="0" y="501.07" width="21.79" height="21.79" fill="#4e5473"/><rect x="21.79" y="501.07" width="21.79" height="21.79" fill="#bfaaef"/><rect x="43.57142857142857" y="479.2857142857143" width="43.57142857142857" height="43.57142857142857" fill="#9978e6"/><rect x="43.57" y="479.29" width="21.79" height="21.79" fill="#735eab"/><rect x="65.36" y="479.29" width="21.79" height="21.79" fill="#313043"/><rect x="43.57" y="501.07" width="21.79" height="21.79" fill="#9476df"/><rect x="65.36" y="501.07" width="21.79" height="21.79" fill="#9575df"/><rect x="87.14285714285714" y="479.2857142857143" width="43.57142857142857" height="43.57142857142857" fill="#9978e6"/><rect x="87.14" y="479.29" width="21.79" height="21.79" fill="#7667b0"/><rect x="108.93" y="479.29" width="21.79" height="21.79" fill="#ded3f7"/><rect x="87.14" y="501.07" width="21.79" height="21.79" fill="#efe9fb"/><rect x="108.93" y="501.07" width="21.79" height="21.79" fill="#5a4c82"/><rect x="130.71428571428572" y="479.2857142857143" width="43.57142857142857" height="43.57142857142857" fill="#9978e6"/><rect x="130.71" y="479.29" width="21.79" height="21.79" fill="#6c59a0"/><rect x="152.5" y="479.29" width="21.79" height="21.79" fill="#565880"/><rect x="130.71" y="501.07" width="21.79" height="21.79" fill="#7c64b9"/><rect x="152.5" y="501.07" width="21.79" height="21.79" fill="#876cca"/><rect x="217.85714285714283" y="479.2857142857143" width="43.57142857142857" height="43.57142857142857" fill="#9978e6"/><rect x="217.86" y="479.29" width="21.79" height="21.79" fill="#61518e"/><rect x="239.64" y="479.29" width="21.79" height="21.79" fill="#534778"/><rect x="217.86" y="501.07" width="21.79" height="21.79" fill="#e4dbf8"/><rect x="239.64" y="501.07" width="21.79" height="21.79" fill="#5d4e87"/><rect x="261.42857142857144" y="479.2857142857143" width="43.57142857142857" height="43.57142857142857" fill="#9978e6"/><rect x="261.43" y="479.29" width="21.79" height="21.79" fill="#866fc9"/><rect x="283.21" y="479.29" width="21.79" height="21.79" fill="#7466ad"/><rect x="261.43" y="501.07" width="21.79" height="21.79" fill="#c6b4f1"/><rect x="283.21" y="501.07" width="21.79" height="21.79" fill="#8e73d5"/><rect x="305" y="479.2857142857143" width="43.57142857142857" height="43.57142857142857" fill="#9978e6"/><rect x="305" y="479.29" width="21.79" height="21.79" fill="#826dc2"/><rect x="326.79" y="479.29" width="21.79" height="21.79" fill="#6f5ba4"/><rect x="305" y="501.07" width="21.79" height="21.79" fill="#4f4572"/><rect x="326.79" y="501.07" width="21.79" height="21.79" fill="#c1adf0"/><rect x="348.57142857142856" y="479.2857142857143" width="43.57142857142857" height="43.57142857142857" fill="#9978e6"/><rect x="348.57" y="479.29" width="21.79" height="21.79" fill="#d9ccf6"/><rect x="370.36" y="479.29" width="21.79" height="21.79" fill="#9b7be7"/><rect x="348.57" y="501.07" width="21.79" height="21.79" fill="#e9e1fa"/><rect x="370.36" y="501.07" width="21.79" height="21.79" fill="#5d5b8a"/><rect x="392.1428571428571" y="479.2857142857143" width="43.57142857142857" height="43.57142857142857" fill="#9978e6"/><rect x="392.14" y="479.29" width="21.79" height="21.79" fill="#816cc1"/><rect x="413.93" y="479.29" width="21.79" height="21.79" fill="#7b69b7"/><rect x="392.14" y="501.07" width="21.79" height="21.79" fill="#715ca8"/><rect x="435.71428571428567" y="479.2857142857143" width="43.57142857142857" height="43.57142857142857" fill="#9978e6"/><rect x="435.71" y="479.29" width="21.79" height="21.79" fill="#8d72d3"/><rect x="457.5" y="479.29" width="21.79" height="21.79" fill="#806cbf"/><rect x="435.71" y="501.07" width="21.79" height="21.79" fill="#504573"/><rect x="457.5" y="501.07" width="21.79" height="21.79" fill="#dfd4f7"/><rect x="479.2857142857143" y="479.2857142857143" width="43.57142857142857" height="43.57142857142857" fill="#9978e6"/><rect x="479.29" y="479.29" width="21.79" height="21.79" fill="#665f97"/><rect x="501.07" y="479.29" width="21.79" height="21.79" fill="#3f3958"/><rect x="479.29" y="501.07" width="21.79" height="21.79" fill="#68609b"/><rect x="501.07" y="501.07" width="21.79" height="21.79" fill="#3a3651"/><rect x="522.8571428571429" y="479.2857142857143" width="43.57142857142857" height="43.57142857142857" fill="#9978e6"/><rect x="522.86" y="479.29" width="21.79" height="21.79" fill="#3f3958"/><rect x="544.64" y="479.29" width="21.79" height="21.79" fill="#8c72d2"/><rect x="522.86" y="501.07" width="21.79" height="21.79" fill="#c7b5f1"/><rect x="544.64" y="501.07" width="21.79" height="21.79" fill="#8b71d0"/><rect x="566.4285714285714" y="479.2857142857143" width="43.57142857142857" height="43.57142857142857" fill="#9978e6"/><rect x="566.43" y="479.29" width="21.79" height="21.79" fill="#282934"/><rect x="588.21" y="479.29" width="21.79" height="21.79" fill="#4b426b"/><rect x="566.43" y="501.07" width="21.79" height="21.79" fill="#8e72d5"/><rect x="588.21" y="501.07" width="21.79" height="21.79" fill="#b59ded"/><rect x="610" y="479.2857142857143" width="43.57142857142857" height="43.57142857142857" fill="#9978e6"/><rect x="610" y="479.29" width="21.79" height="21.79" fill="#7d6abb"/><rect x="631.79" y="479.29" width="21.79" height="21.79" fill="#f9f6fd"/><rect x="631.79" y="501.07" width="21.79" height="21.79" fill="#dfd5f7"/><rect x="653.5714285714286" y="479.2857142857143" width="43.57142857142857" height="43.57142857142857" fill="#9978e6"/><rect x="653.57" y="479.29" width="21.79" height="21.79" fill="#565880"/><rect x="675.36" y="479.29" width="21.79" height="21.79" fill="#896dce"/><rect x="653.57" y="501.07" width="21.79" height="21.79" fill="#3a3651"/><rect x="675.36" y="501.07" width="21.79" height="21.79" fill="#8b71d1"/><rect x="697.1428571428571" y="479.2857142857143" width="43.57142857142857" height="43.57142857142857" fill="#9978e6"/><rect x="718.93" y="479.29" width="21.79" height="21.79" fill="#39354f"/><rect x="697.14" y="501.07" width="21.79" height="21.79" fill="#a88bea"/><rect x="718.93" y="501.07" width="21.79" height="21.79" fill="#5b5a86"/><rect x="740.7142857142857" y="479.2857142857143" width="43.57142857142857" height="43.57142857142857" fill="#9978e6"/><rect x="740.71" y="479.29" width="21.79" height="21.79" fill="#2e2e3e"/><rect x="762.5" y="479.29" width="21.79" height="21.79" fill="#61518f"/><rect x="740.71" y="501.07" width="21.79" height="21.79" fill="#6f5ba5"/><rect x="762.5" y="501.07" width="21.79" height="21.79" fill="#f0ebfb"/><rect x="827.8571428571428" y="479.2857142857143" width="43.57142857142857" height="43.57142857142857" fill="#9978e6"/><rect x="827.86" y="479.29" width="21.79" height="21.79" fill="#9375dd"/><rect x="849.64" y="479.29" width="21.79" height="21.79" fill="#9c7be7"/><rect x="827.86" y="501.07" width="21.79" height="21.79" fill="#c9b7f2"/><rect x="849.64" y="501.07" width="21.79" height="21.79" fill="#5e5b8b"/><rect x="871.4285714285713" y="479.2857142857143" width="43.57142857142857" height="43.57142857142857" fill="#9978e6"/><rect x="871.43" y="479.29" width="21.79" height="21.79" fill="#2d2d3c"/><rect x="893.21" y="479.29" width="21.79" height="21.79" fill="#baa4ee"/><rect x="871.43" y="501.07" width="21.79" height="21.79" fill="#292a36"/><rect x="893.21" y="501.07" width="21.79" height="21.79" fill="#9676e1"/><rect x="915" y="479.2857142857143" width="43.57142857142857" height="43.57142857142857" fill="#9978e6"/><rect x="915" y="479.29" width="21.79" height="21.79" fill="#a081e8"/><rect x="936.79" y="479.29" width="21.79" height="21.79" fill="#e3daf8"/><rect x="915" y="501.07" width="21.79" height="21.79" fill="#5b4d84"/><rect x="936.79" y="501.07" width="21.79" height="21.79" fill="#9e7fe7"/><rect x="958.5714285714286" y="479.2857142857143" width="43.57142857142857" height="43.57142857142857" fill="#9978e6"/><rect x="958.57" y="479.29" width="21.79" height="21.79" fill="#4b526f"/><rect x="980.36" y="479.29" width="21.79" height="21.79" fill="#a588e9"/><rect x="958.57" y="501.07" width="21.79" height="21.79" fill="#e0d6f7"/><rect x="980.36" y="501.07" width="21.79" height="21.79" fill="#2f2e3f"/><rect x="1002.1428571428571" y="479.2857142857143" width="43.57142857142857" height="43.57142857142857" fill="#9978e6"/><rect x="1002.14" y="479.29" width="21.79" height="21.79" fill="#595984"/><rect x="1023.93" y="479.29" width="21.79" height="21.79" fill="#6d62a2"/><rect x="1002.14" y="501.07" width="21.79" height="21.79" fill="#f0ebfb"/><rect x="1023.93" y="501.07" width="21.79" height="21.79" fill="#baa3ee"/><rect x="1045.7142857142858" y="479.2857142857143" width="43.57142857142857" height="43.57142857142857" fill="#9978e6"/><rect x="1045.71" y="479.29" width="21.79" height="21.79" fill="#292a36"/><rect x="1067.5" y="479.29" width="21.79" height="21.79" fill="#56497c"/><rect x="1045.71" y="501.07" width="21.79" height="21.79" fill="#e4dbf8"/><rect x="1067.5" y="501.07" width="21.79" height="21.79" fill="#7164a8"/><rect x="0" y="522.8571428571429" width="43.57142857142857" height="43.57142857142857" fill="#9978e6"/><rect x="0" y="522.86" width="21.79" height="21.79" fill="#53567a"/><rect x="21.79" y="522.86" width="21.79" height="21.79" fill="#e5dcf9"/><rect x="0" y="544.64" width="21.79" height="21.79" fill="#5e5b8b"/><rect x="21.79" y="544.64" width="21.79" height="21.79" fill="#2d2d3c"/><rect x="43.57142857142857" y="522.8571428571429" width="43.57142857142857" height="43.57142857142857" fill="#9978e6"/><rect x="43.57" y="522.86" width="21.79" height="21.79" fill="#61518d"/><rect x="65.36" y="522.86" width="21.79" height="21.79" fill="#2d2d3c"/><rect x="43.57" y="544.64" width="21.79" height="21.79" fill="#2c2c3a"/><rect x="65.36" y="544.64" width="21.79" height="21.79" fill="#bda7ef"/><rect x="87.14285714285714" y="522.8571428571429" width="43.57142857142857" height="43.57142857142857" fill="#9978e6"/><rect x="87.14" y="522.86" width="21.79" height="21.79" fill="#584a7f"/><rect x="108.93" y="522.86" width="21.79" height="21.79" fill="#fffeff"/><rect x="87.14" y="544.64" width="21.79" height="21.79" fill="#fcfbfe"/><rect x="108.93" y="544.64" width="21.79" height="21.79" fill="#c7b5f1"/><rect x="130.71428571428572" y="522.8571428571429" width="43.57142857142857" height="43.57142857142857" fill="#9978e6"/><rect x="130.71" y="522.86" width="21.79" height="21.79" fill="#e6def9"/><rect x="152.5" y="522.86" width="21.79" height="21.79" fill="#7164a8"/><rect x="130.71" y="544.64" width="21.79" height="21.79" fill="#876cca"/><rect x="152.5" y="544.64" width="21.79" height="21.79" fill="#9174da"/><rect x="174.28571428571428" y="522.8571428571429" width="43.57142857142857" height="43.57142857142857" fill="#9978e6"/><rect x="174.29" y="522.86" width="21.79" height="21.79" fill="#e2d9f8"/><rect x="196.07" y="522.86" width="21.79" height="21.79" fill="#c8b6f1"/><rect x="174.29" y="544.64" width="21.79" height="21.79" fill="#9e7ee7"/><rect x="196.07" y="544.64" width="21.79" height="21.79" fill="#3b3753"/><rect x="217.85714285714283" y="522.8571428571429" width="43.57142857142857" height="43.57142857142857" fill="#9978e6"/><rect x="217.86" y="522.86" width="21.79" height="21.79" fill="#b198ec"/><rect x="239.64" y="522.86" width="21.79" height="21.79" fill="#7b69b8"/><rect x="217.86" y="544.64" width="21.79" height="21.79" fill="#8d72d4"/><rect x="239.64" y="544.64" width="21.79" height="21.79" fill="#9375dd"/><rect x="261.42857142857144" y="522.8571428571429" width="43.57142857142857" height="43.57142857142857" fill="#9978e6"/><rect x="261.43" y="522.86" width="21.79" height="21.79" fill="#5f508b"/><rect x="283.21" y="522.86" width="21.79" height="21.79" fill="#806cc0"/><rect x="261.43" y="544.64" width="21.79" height="21.79" fill="#b49ced"/><rect x="283.21" y="544.64" width="21.79" height="21.79" fill="#5f4f8a"/><rect x="305" y="522.8571428571429" width="43.57142857142857" height="43.57142857142857" fill="#9978e6"/><rect x="305" y="522.86" width="21.79" height="21.79" fill="#7f6bbe"/><rect x="326.79" y="522.86" width="21.79" height="21.79" fill="#ac91eb"/><rect x="305" y="544.64" width="21.79" height="21.79" fill="#6f64a6"/><rect x="326.79" y="544.64" width="21.79" height="21.79" fill="#8870cc"/><rect x="348.57142857142856" y="522.8571428571429" width="43.57142857142857" height="43.57142857142857" fill="#9978e6"/><rect x="348.57" y="522.86" width="21.79" height="21.79" fill="#7b69b7"/><rect x="370.36" y="522.86" width="21.79" height="21.79" fill="#4d436f"/><rect x="348.57" y="544.64" width="21.79" height="21.79" fill="#7f66bd"/><rect x="370.36" y="544.64" width="21.79" height="21.79" fill="#ad92eb"/><rect x="392.1428571428571" y="522.8571428571429" width="43.57142857142857" height="43.57142857142857" fill="#9978e6"/><rect x="392.14" y="522.86" width="21.79" height="21.79" fill="#dbcff6"/><rect x="413.93" y="522.86" width="21.79" height="21.79" fill="#574a7e"/><rect x="392.14" y="544.64" width="21.79" height="21.79" fill="#ede7fa"/><rect x="413.93" y="544.64" width="21.79" height="21.79" fill="#595983"/><rect x="435.71428571428567" y="522.8571428571429" width="43.57142857142857" height="43.57142857142857" fill="#9978e6"/><rect x="435.71" y="522.86" width="21.79" height="21.79" fill="#5b5a87"/><rect x="457.5" y="522.86" width="21.79" height="21.79" fill="#806cbf"/><rect x="435.71" y="544.64" width="21.79" height="21.79" fill="#f3effc"/><rect x="457.5" y="544.64" width="21.79" height="21.79" fill="#8e72d4"/><rect x="479.2857142857143" y="522.8571428571429" width="43.57142857142857" height="43.57142857142857" fill="#9978e6"/><rect x="479.29" y="522.86" width="21.79" height="21.79" fill="#8c6fd1"/><rect x="501.07" y="522.86" width="21.79" height="21.79" fill="#f2edfc"/><rect x="479.29" y="544.64" width="21.79" height="21.79" fill="#8067bf"/><rect x="501.07" y="544.64" width="21.79" height="21.79" fill="#f2edfc"/><rect x="522.8571428571429" y="522.8571428571429" width="43.57142857142857" height="43.57142857142857" fill="#9978e6"/><rect x="522.86" y="522.86" width="21.79" height="21.79" fill="#7768b2"/><rect x="544.64" y="522.86" width="21.79" height="21.79" fill="#5a5985"/><rect x="522.86" y="544.64" width="21.79" height="21.79" fill="#7566ae"/><rect x="544.64" y="544.64" width="21.79" height="21.79" fill="#ede7fb"/><rect x="566.4285714285714" y="522.8571428571429" width="43.57142857142857" height="43.57142857142857" fill="#9978e6"/><rect x="566.43" y="522.86" width="21.79" height="21.79" fill="#a98dea"/><rect x="588.21" y="522.86" width="21.79" height="21.79" fill="#a183e8"/><rect x="566.43" y="544.64" width="21.79" height="21.79" fill="#fdfcfe"/><rect x="588.21" y="544.64" width="21.79" height="21.79" fill="#8d6fd2"/><rect x="610" y="522.8571428571429" width="43.57142857142857" height="43.57142857142857" fill="#9978e6"/><rect x="610" y="522.86" width="21.79" height="21.79" fill="#3c3754"/><rect x="631.79" y="522.86" width="21.79" height="21.79" fill="#635291"/><rect x="610" y="544.64" width="21.79" height="21.79" fill="#7b63b7"/><rect x="631.79" y="544.64" width="21.79" height="21.79" fill="#7164a8"/><rect x="653.5714285714286" y="522.8571428571429" width="43.57142857142857" height="43.57142857142857" fill="#9978e6"/><rect x="653.57" y="522.86" width="21.79" height="21.79" fill="#675f98"/><rect x="675.36" y="522.86" width="21.79" height="21.79" fill="#c7b5f1"/><rect x="653.57" y="544.64" width="21.79" height="21.79" fill="#675f98"/><rect x="675.36" y="544.64" width="21.79" height="21.79" fill="#55497c"/><rect x="697.1428571428571" y="522.8571428571429" width="43.57142857142857" height="43.57142857142857" fill="#9978e6"/><rect x="697.14" y="522.86" width="21.79" height="21.79" fill="#cebef3"/><rect x="718.93" y="522.86" width="21.79" height="21.79" fill="#ddd3f7"/><rect x="697.14" y="544.64" width="21.79" height="21.79" fill="#8a6ecf"/><rect x="718.93" y="544.64" width="21.79" height="21.79" fill="#876cca"/><rect x="740.7142857142857" y="522.8571428571429" width="43.57142857142857" height="43.57142857142857" fill="#9978e6"/><rect x="740.71" y="522.86" width="21.79" height="21.79" fill="#8970ce"/><rect x="762.5" y="522.86" width="21.79" height="21.79" fill="#725da8"/><rect x="740.71" y="544.64" width="21.79" height="21.79" fill="#282934"/><rect x="762.5" y="544.64" width="21.79" height="21.79" fill="#39354f"/><rect x="784.2857142857142" y="522.8571428571429" width="43.57142857142857" height="43.57142857142857" fill="#9978e6"/><rect x="784.29" y="522.86" width="21.79" height="21.79" fill="#d1c3f4"/><rect x="806.07" y="522.86" width="21.79" height="21.79" fill="#7265aa"/><rect x="784.29" y="544.64" width="21.79" height="21.79" fill="#585881"/><rect x="806.07" y="544.64" width="21.79" height="21.79" fill="#f2edfc"/><rect x="827.8571428571428" y="522.8571428571429" width="43.57142857142857" height="43.57142857142857" fill="#9978e6"/><rect x="827.86" y="522.86" width="21.79" height="21.79" fill="#9878e5"/><rect x="849.64" y="522.86" width="21.79" height="21.79" fill="#a081e8"/><rect x="827.86" y="544.64" width="21.79" height="21.79" fill="#36334b"/><rect x="849.64" y="544.64" width="21.79" height="21.79" fill="#d2c4f4"/><rect x="871.4285714285713" y="522.8571428571429" width="43.57142857142857" height="43.57142857142857" fill="#9978e6"/><rect x="871.43" y="522.86" width="21.79" height="21.79" fill="#302f40"/><rect x="893.21" y="522.86" width="21.79" height="21.79" fill="#69569a"/><rect x="871.43" y="544.64" width="21.79" height="21.79" fill="#655494"/><rect x="893.21" y="544.64" width="21.79" height="21.79" fill="#292a36"/><rect x="915" y="522.8571428571429" width="43.57142857142857" height="43.57142857142857" fill="#9978e6"/><rect x="915" y="522.86" width="21.79" height="21.79" fill="#745eab"/><rect x="936.79" y="522.86" width="21.79" height="21.79" fill="#7466ad"/><rect x="915" y="544.64" width="21.79" height="21.79" fill="#a081e8"/><rect x="936.79" y="544.64" width="21.79" height="21.79" fill="#bda8ef"/><rect x="958.5714285714286" y="522.8571428571429" width="43.57142857142857" height="43.57142857142857" fill="#9978e6"/><rect x="958.57" y="522.86" width="21.79" height="21.79" fill="#8c72d2"/><rect x="980.36" y="522.86" width="21.79" height="21.79" fill="#302f40"/><rect x="958.57" y="544.64" width="21.79" height="21.79" fill="#333146"/><rect x="980.36" y="544.64" width="21.79" height="21.79" fill="#c3b0f0"/><rect x="1002.1428571428571" y="522.8571428571429" width="43.57142857142857" height="43.57142857142857" fill="#9978e6"/><rect x="1002.14" y="522.86" width="21.79" height="21.79" fill="#866bc8"/><rect x="1023.93" y="522.86" width="21.79" height="21.79" fill="#7f66be"/><rect x="1002.14" y="544.64" width="21.79" height="21.79" fill="#9677e2"/><rect x="1023.93" y="544.64" width="21.79" height="21.79" fill="#6a619d"/><rect x="1045.7142857142858" y="522.8571428571429" width="43.57142857142857" height="43.57142857142857" fill="#9978e6"/><rect x="1045.71" y="522.86" width="21.79" height="21.79" fill="#54567b"/><rect x="1067.5" y="522.86" width="21.79" height="21.79" fill="#9273db"/><rect x="1045.71" y="544.64" width="21.79" height="21.79" fill="#846ec5"/><rect x="1067.5" y="544.64" width="21.79" height="21.79" fill="#8c72d3"/><rect x="0" y="566.4285714285714" width="43.57142857142857" height="43.57142857142857" fill="#9978e6"/><rect x="0" y="566.43" width="21.79" height="21.79" fill="#8c6fd1"/><rect x="21.79" y="566.43" width="21.79" height="21.79" fill="#645e94"/><rect x="0" y="588.21" width="21.79" height="21.79" fill="#7466ad"/><rect x="21.79" y="588.21" width="21.79" height="21.79" fill="#9074d8"/><rect x="43.57142857142857" y="566.4285714285714" width="43.57142857142857" height="43.57142857142857" fill="#9978e6"/><rect x="43.57" y="566.43" width="21.79" height="21.79" fill="#585882"/><rect x="65.36" y="566.43" width="21.79" height="21.79" fill="#fcfcfe"/><rect x="43.57" y="588.21" width="21.79" height="21.79" fill="#9173da"/><rect x="65.36" y="588.21" width="21.79" height="21.79" fill="#4e4471"/><rect x="87.14285714285714" y="566.4285714285714" width="43.57142857142857" height="43.57142857142857" fill="#9978e6"/><rect x="87.14" y="566.43" width="21.79" height="21.79" fill="#9877e5"/><rect x="108.93" y="566.43" width="21.79" height="21.79" fill="#af96eb"/><rect x="87.14" y="588.21" width="21.79" height="21.79" fill="#dacef6"/><rect x="108.93" y="588.21" width="21.79" height="21.79" fill="#8f71d7"/><rect x="130.71428571428572" y="566.4285714285714" width="43.57142857142857" height="43.57142857142857" fill="#9978e6"/><rect x="130.71" y="566.43" width="21.79" height="21.79" fill="#ab90ea"/><rect x="152.5" y="566.43" width="21.79" height="21.79" fill="#8f73d7"/><rect x="130.71" y="588.21" width="21.79" height="21.79" fill="#302f40"/><rect x="152.5" y="588.21" width="21.79" height="21.79" fill="#9071d7"/><rect x="174.28571428571428" y="566.4285714285714" width="43.57142857142857" height="43.57142857142857" fill="#9978e6"/><rect x="174.29" y="566.43" width="21.79" height="21.79" fill="#9f80e8"/><rect x="196.07" y="566.43" width="21.79" height="21.79" fill="#655f97"/><rect x="174.29" y="588.21" width="21.79" height="21.79" fill="#bea9ef"/><rect x="196.07" y="588.21" width="21.79" height="21.79" fill="#4f4471"/><rect x="217.85714285714283" y="566.4285714285714" width="43.57142857142857" height="43.57142857142857" fill="#9978e6"/><rect x="217.86" y="566.43" width="21.79" height="21.79" fill="#675f98"/><rect x="239.64" y="566.43" width="21.79" height="21.79" fill="#896dcd"/><rect x="217.86" y="588.21" width="21.79" height="21.79" fill="#b69eed"/><rect x="239.64" y="588.21" width="21.79" height="21.79" fill="#302f40"/><rect x="261.42857142857144" y="566.4285714285714" width="43.57142857142857" height="43.57142857142857" fill="#9978e6"/><rect x="261.43" y="566.43" width="21.79" height="21.79" fill="#615d90"/><rect x="283.21" y="566.43" width="21.79" height="21.79" fill="#876bc9"/><rect x="261.43" y="588.21" width="21.79" height="21.79" fill="#645393"/><rect x="283.21" y="588.21" width="21.79" height="21.79" fill="#2f2e3f"/><rect x="305" y="566.4285714285714" width="43.57142857142857" height="43.57142857142857" fill="#9978e6"/><rect x="305" y="566.43" width="21.79" height="21.79" fill="#7064a6"/><rect x="326.79" y="566.43" width="21.79" height="21.79" fill="#faf9fe"/><rect x="305" y="588.21" width="21.79" height="21.79" fill="#aa8fea"/><rect x="326.79" y="588.21" width="21.79" height="21.79" fill="#876fca"/><rect x="348.57142857142856" y="566.4285714285714" width="43.57142857142857" height="43.57142857142857" fill="#9978e6"/><rect x="348.57" y="566.43" width="21.79" height="21.79" fill="#f0ebfb"/><rect x="370.36" y="566.43" width="21.79" height="21.79" fill="#d1c2f4"/><rect x="348.57" y="588.21" width="21.79" height="21.79" fill="#dfd5f7"/><rect x="370.36" y="588.21" width="21.79" height="21.79" fill="#eae4fa"/><rect x="392.1428571428571" y="566.4285714285714" width="43.57142857142857" height="43.57142857142857" fill="#9978e6"/><rect x="392.14" y="566.43" width="21.79" height="21.79" fill="#61518e"/><rect x="413.93" y="566.43" width="21.79" height="21.79" fill="#a88bea"/><rect x="392.14" y="588.21" width="21.79" height="21.79" fill="#4c426c"/><rect x="413.93" y="588.21" width="21.79" height="21.79" fill="#8b71d0"/><rect x="435.71428571428567" y="566.4285714285714" width="43.57142857142857" height="43.57142857142857" fill="#9978e6"/><rect x="435.71" y="566.43" width="21.79" height="21.79" fill="#876bc9"/><rect x="457.5" y="566.43" width="21.79" height="21.79" fill="#3c3753"/><rect x="435.71" y="588.21" width="21.79" height="21.79" fill="#514674"/><rect x="457.5" y="588.21" width="21.79" height="21.79" fill="#9978e5"/><rect x="479.2857142857143" y="566.4285714285714" width="43.57142857142857" height="43.57142857142857" fill="#9978e6"/><rect x="479.29" y="566.43" width="21.79" height="21.79" fill="#9b7be7"/><rect x="501.07" y="566.43" width="21.79" height="21.79" fill="#9475de"/><rect x="479.29" y="588.21" width="21.79" height="21.79" fill="#c8b6f1"/><rect x="501.07" y="588.21" width="21.79" height="21.79" fill="#876cca"/><rect x="522.8571428571429" y="566.4285714285714" width="43.57142857142857" height="43.57142857142857" fill="#9978e6"/><rect x="522.86" y="566.43" width="21.79" height="21.79" fill="#f5f2fd"/><rect x="544.64" y="566.43" width="21.79" height="21.79" fill="#55577e"/><rect x="522.86" y="588.21" width="21.79" height="21.79" fill="#595984"/><rect x="544.64" y="588.21" width="21.79" height="21.79" fill="#e5ddf9"/><rect x="566.4285714285714" y="566.4285714285714" width="43.57142857142857" height="43.57142857142857" fill="#9978e6"/><rect x="566.43" y="566.43" width="21.79" height="21.79" fill="#c3aff0"/><rect x="588.21" y="566.43" width="21.79" height="21.79" fill="#9576e0"/><rect x="566.43" y="588.21" width="21.79" height="21.79" fill="#7961b3"/><rect x="588.21" y="588.21" width="21.79" height="21.79" fill="#8a71ce"/><rect x="610" y="566.4285714285714" width="43.57142857142857" height="43.57142857142857" fill="#9978e6"/><rect x="610" y="566.43" width="21.79" height="21.79" fill="#9c7be7"/><rect x="631.79" y="566.43" width="21.79" height="21.79" fill="#4f4572"/><rect x="610" y="588.21" width="21.79" height="21.79" fill="#2b2b39"/><rect x="631.79" y="588.21" width="21.79" height="21.79" fill="#9d7de7"/><rect x="653.5714285714286" y="566.4285714285714" width="43.57142857142857" height="43.57142857142857" fill="#9978e6"/><rect x="653.57" y="566.43" width="21.79" height="21.79" fill="#af96eb"/><rect x="675.36" y="566.43" width="21.79" height="21.79" fill="#8c6fd2"/><rect x="653.57" y="588.21" width="21.79" height="21.79" fill="#bca6ef"/><rect x="675.36" y="588.21" width="21.79" height="21.79" fill="#2a2b37"/><rect x="697.1428571428571" y="566.4285714285714" width="43.57142857142857" height="43.57142857142857" fill="#9978e6"/><rect x="697.14" y="566.43" width="21.79" height="21.79" fill="#525578"/><rect x="718.93" y="566.43" width="21.79" height="21.79" fill="#a88cea"/><rect x="697.14" y="588.21" width="21.79" height="21.79" fill="#4b426b"/><rect x="718.93" y="588.21" width="21.79" height="21.79" fill="#6f5ba4"/><rect x="740.7142857142857" y="566.4285714285714" width="43.57142857142857" height="43.57142857142857" fill="#9978e6"/><rect x="740.71" y="566.43" width="21.79" height="21.79" fill="#735daa"/><rect x="762.5" y="566.43" width="21.79" height="21.79" fill="#69609c"/><rect x="740.71" y="588.21" width="21.79" height="21.79" fill="#ac91eb"/><rect x="762.5" y="588.21" width="21.79" height="21.79" fill="#f6f3fd"/><rect x="784.2857142857142" y="566.4285714285714" width="43.57142857142857" height="43.57142857142857" fill="#9978e6"/><rect x="784.29" y="566.43" width="21.79" height="21.79" fill="#6b62a0"/><rect x="806.07" y="566.43" width="21.79" height="21.79" fill="#2a2b37"/><rect x="784.29" y="588.21" width="21.79" height="21.79" fill="#af95eb"/><rect x="806.07" y="588.21" width="21.79" height="21.79" fill="#806cc0"/><rect x="827.8571428571428" y="566.4285714285714" width="43.57142857142857" height="43.57142857142857" fill="#9978e6"/><rect x="827.86" y="566.43" width="21.79" height="21.79" fill="#7767b1"/><rect x="849.64" y="566.43" width="21.79" height="21.79" fill="#c6b4f1"/><rect x="827.86" y="588.21" width="21.79" height="21.79" fill="#8c72d1"/><rect x="849.64" y="588.21" width="21.79" height="21.79" fill="#d4c6f4"/><rect x="871.4285714285713" y="566.4285714285714" width="43.57142857142857" height="43.57142857142857" fill="#9978e6"/><rect x="871.43" y="566.43" width="21.79" height="21.79" fill="#7d65ba"/><rect x="893.21" y="566.43" width="21.79" height="21.79" fill="#55497b"/><rect x="871.43" y="588.21" width="21.79" height="21.79" fill="#5c4e87"/><rect x="893.21" y="588.21" width="21.79" height="21.79" fill="#d1c2f4"/><rect x="915" y="566.4285714285714" width="43.57142857142857" height="43.57142857142857" fill="#9978e6"/><rect x="915" y="566.43" width="21.79" height="21.79" fill="#7a62b5"/><rect x="936.79" y="566.43" width="21.79" height="21.79" fill="#403a59"/><rect x="915" y="588.21" width="21.79" height="21.79" fill="#323044"/><rect x="936.79" y="588.21" width="21.79" height="21.79" fill="#5f5c8d"/><rect x="958.5714285714286" y="566.4285714285714" width="43.57142857142857" height="43.57142857142857" fill="#9978e6"/><rect x="958.57" y="566.43" width="21.79" height="21.79" fill="#645e94"/><rect x="980.36" y="566.43" width="21.79" height="21.79" fill="#fdfcfe"/><rect x="958.57" y="588.21" width="21.79" height="21.79" fill="#876fca"/><rect x="980.36" y="588.21" width="21.79" height="21.79" fill="#62518f"/><rect x="1002.1428571428571" y="566.4285714285714" width="43.57142857142857" height="43.57142857142857" fill="#9978e6"/><rect x="1002.14" y="566.43" width="21.79" height="21.79" fill="#514675"/><rect x="1023.93" y="566.43" width="21.79" height="21.79" fill="#a78ae9"/><rect x="1002.14" y="588.21" width="21.79" height="21.79" fill="#5a5986"/><rect x="1023.93" y="588.21" width="21.79" height="21.79" fill="#272832"/><rect x="1045.7142857142858" y="566.4285714285714" width="43.57142857142857" height="43.57142857142857" fill="#9978e6"/><rect x="1045.71" y="566.43" width="21.79" height="21.79" fill="#d0c0f3"/><rect x="1067.5" y="566.43" width="21.79" height="21.79" fill="#302f40"/><rect x="1045.71" y="588.21" width="21.79" height="21.79" fill="#ebe4fa"/><rect x="1067.5" y="588.21" width="21.79" height="21.79" fill="#7e6bbc"/></g></svg>