<svg xmlns="http://www.w3.org/2000/svg" version="1.1" xmlns:xlink="http://www.w3.org/1999/xlink" xmlns:svgjs="http://svgjs.com/svgjs" width="1440" height="560" preserveAspectRatio="none" viewBox="0 0 1440 560"><g mask="url(&quot;#SvgjsMask3297&quot;)" fill="none"><rect width="1440" height="560" x="0" y="0" fill="url(#SvgjsLinearGradient3298)"></rect><path d="M1440 0L735.17 0L1440 176.11z" fill="rgba(255, 255, 255, .1)"></path><path d="M735.17 0L1440 176.11L1440 209.12L353.29999999999995 0z" fill="rgba(255, 255, 255, .075)"></path><path d="M353.29999999999995 0L1440 209.12L1440 330.3L204.42999999999995 0z" fill="rgba(255, 255, 255, .05)"></path><path d="M204.42999999999984 0L1440 330.3L1440 487.48L110.88999999999983 0z" fill="rgba(255, 255, 255, .025)"></path><path d="M0 560L569.21 560L0 352.74z" fill="rgba(0, 0, 0, .1)"></path><path d="M0 352.74L569.21 560L1040.05 560L0 179.51000000000002z" fill="rgba(0, 0, 0, .075)"></path><path d="M0 179.51L1040.05 560L1260.7 560L0 173.85z" fill="rgba(0, 0, 0, .05)"></path><path d="M0 173.84999999999997L1260.7 560L1326.21 560L0 161.10999999999996z" fill="rgba(0, 0, 0, .025)"></path></g><defs><mask id="SvgjsMask3297"><rect width="1440" height="560" fill="#ffffff"></rect></mask><linearGradient x1="0%" y1="50%" x2="100%" y2="50%" gradientUnits="userSpaceOnUse" id="SvgjsLinearGradient3298"><stop stop-color="rgba(0, 0, 0, 1)" offset="0.01"></stop><stop stop-color="rgba(90, 55, 96, 1)" offset="0.34"></stop><stop stop-color="rgba(97, 0, 112, 1)" offset="1"></stop></linearGradient></defs></svg>