<svg xmlns="http://www.w3.org/2000/svg" version="1.1" xmlns:xlink="http://www.w3.org/1999/xlink" xmlns:svgjs="http://svgjs.com/svgjs" width="1440" height="560" preserveAspectRatio="none" viewBox="0 0 1440 560"><g mask="url(&quot;#SvgjsMask1436&quot;)" fill="none"><rect width="1440" height="560" x="0" y="0" fill="url(#SvgjsLinearGradient1437)"></rect><path d="M1440 0L1326.9 0L1440 188.11z" fill="rgba(255, 255, 255, .1)"></path><path d="M1326.9 0L1440 188.11L1440 261.39L895.0700000000002 0z" fill="rgba(255, 255, 255, .075)"></path><path d="M895.07 0L1440 261.39L1440 334.07L771.6800000000001 0z" fill="rgba(255, 255, 255, .05)"></path><path d="M771.6800000000001 0L1440 334.07L1440 424.1L517.5200000000001 0z" fill="rgba(255, 255, 255, .025)"></path><path d="M0 560L279.33 560L0 303.94z" fill="rgba(0, 0, 0, .1)"></path><path d="M0 303.94L279.33 560L698.78 560L0 210.95z" fill="rgba(0, 0, 0, .075)"></path><path d="M0 210.95L698.78 560L1117.79 560L0 81.47999999999999z" fill="rgba(0, 0, 0, .05)"></path><path d="M0 81.48000000000002L1117.79 560L1301.47 560L0 34.06000000000002z" fill="rgba(0, 0, 0, .025)"></path></g><defs><mask id="SvgjsMask1436"><rect width="1440" height="560" fill="#ffffff"></rect></mask><linearGradient x1="15.28%" y1="-39.29%" x2="84.72%" y2="139.29%" gradientUnits="userSpaceOnUse" id="SvgjsLinearGradient1437"><stop stop-color="#0e2a47" offset="0"></stop><stop stop-color="rgba(97, 0, 112, 1)" offset="1"></stop></linearGradient></defs></svg>