<svg xmlns="http://www.w3.org/2000/svg" version="1.1" xmlns:xlink="http://www.w3.org/1999/xlink" xmlns:svgjs="http://svgjs.com/svgjs" width="2000" height="560" preserveAspectRatio="none" viewBox="0 0 2000 560"><g mask="url(&quot;#SvgjsMask1386&quot;)" fill="none"><rect width="2000" height="560" x="0" y="0" fill="url(#SvgjsLinearGradient1387)"></rect><path d="M 0,393 C 133.4,349 400.2,162.4 667,173 C 933.8,183.6 1067.4,431.4 1334,446 C 1600.6,460.6 1866.8,286 2000,246L2000 560L0 560z" fill="rgba(202, 255, 154, 1)"></path><path d="M 0,389 C 133.4,357.4 400.2,234.8 667,231 C 933.8,227.2 1067.4,386.2 1334,370 C 1600.6,353.8 1866.8,194 2000,150L2000 560L0 560z" fill="rgba(171, 255, 109, 1)"></path><path d="M 0,525 C 133.4,472.6 400.2,288.4 667,263 C 933.8,237.6 1067.4,443.2 1334,398 C 1600.6,352.8 1866.8,109.2 2000,37L2000 560L0 560z" fill="rgba(144, 82, 144, 1)"></path><path d="M 0,177 C 133.4,250.2 400.2,565.4 667,543 C 933.8,520.6 1067.4,105.8 1334,65 C 1600.6,24.2 1866.8,284.2 2000,339L2000 560L0 560z" fill="rgba(57, 12, 60, 1)"></path><path d="M 0,266 C 100,318 300,538.4 500,526 C 700,513.6 800,224.6 1000,204 C 1200,183.4 1300,459.8 1500,423 C 1700,386.2 1900,100.6 2000,20L2000 560L0 560z" fill="rgba(103, 118, 134, 1)"></path><path d="M 0,465 C 80,421 240,226.6 400,245 C 560,263.4 640,577 800,557 C 960,537 1040,159.8 1200,145 C 1360,130.2 1440,497.6 1600,483 C 1760,468.4 1920,154.2 2000,72L2000 560L0 560z" fill="rgba(48, 12, 55, 1)"></path></g><defs><mask id="SvgjsMask1386"><rect width="2000" height="560" fill="#ffffff"></rect></mask><linearGradient x1="18%" y1="-64.29%" x2="82%" y2="164.29%" gradientUnits="userSpaceOnUse" id="SvgjsLinearGradient1387"><stop stop-color="rgba(0, 0, 0, 1)" offset="0"></stop><stop stop-color="rgba(197, 151, 255, 1)" offset="1"></stop></linearGradient></defs></svg>