<svg xmlns="http://www.w3.org/2000/svg" version="1.1" xmlns:xlink="http://www.w3.org/1999/xlink" xmlns:svgjs="http://svgjs.com/svgjs" width="2000" height="560" preserveAspectRatio="none" viewBox="0 0 2000 560"><g mask="url(&quot;#SvgjsMask1366&quot;)" fill="none"><rect width="2000" height="560" x="0" y="0" fill="url(#SvgjsLinearGradient1367)"></rect><path d="M 0,163 C 100,212 300,385 500,408 C 700,431 800,267.8 1000,278 C 1200,288.2 1300,490 1500,459 C 1700,428 1900,190.2 2000,123L2000 560L0 560z" fill="rgba(103, 118, 134, 1)"></path><path d="M 0,481 C 80,399.4 240,57.4 400,73 C 560,88.6 640,518.8 800,559 C 960,599.2 1040,323.4 1200,274 C 1360,224.6 1440,327.8 1600,312 C 1760,296.2 1920,218.4 2000,195L2000 560L0 560z" fill="rgba(48, 12, 55, 1)"></path></g><defs><mask id="SvgjsMask1366"><rect width="2000" height="560" fill="#ffffff"></rect></mask><linearGradient x1="18%" y1="-64.29%" x2="82%" y2="164.29%" gradientUnits="userSpaceOnUse" id="SvgjsLinearGradient1367"><stop stop-color="rgba(0, 0, 0, 1)" offset="0"></stop><stop stop-color="rgba(197, 151, 255, 1)" offset="1"></stop></linearGradient></defs></svg>