<svg xmlns="http://www.w3.org/2000/svg" version="1.1" xmlns:xlink="http://www.w3.org/1999/xlink" xmlns:svgjs="http://svgjs.com/svgjs" width="1440" height="560" preserveAspectRatio="none" viewBox="0 0 1440 560"><g mask="url(&quot;#SvgjsMask1544&quot;)" fill="none"><rect width="1440" height="560" x="0" y="0" fill="url(#SvgjsLinearGradient1545)"></rect><path d="M 0,275 C 72,286.2 216,356.2 360,331 C 504,305.8 576,128.4 720,149 C 864,169.6 936,452.8 1080,434 C 1224,415.2 1368,130.8 1440,55L1440 560L0 560z" fill="rgba(103, 118, 134, 1)"></path><path d="M 0,45 C 57.6,105.8 172.8,303.6 288,349 C 403.2,394.4 460.8,268.8 576,272 C 691.2,275.2 748.8,397 864,365 C 979.2,333 1036.8,76 1152,112 C 1267.2,148 1382.4,458.4 1440,545L1440 560L0 560z" fill="rgba(48, 12, 55, 1)"></path></g><defs><mask id="SvgjsMask1544"><rect width="1440" height="560" fill="#ffffff"></rect></mask><linearGradient x1="15.28%" y1="-39.29%" x2="84.72%" y2="139.29%" gradientUnits="userSpaceOnUse" id="SvgjsLinearGradient1545"><stop stop-color="rgba(0, 0, 0, 1)" offset="0"></stop><stop stop-color="rgba(73, 0, 165, 1)" offset="1"></stop></linearGradient></defs></svg>