<svg xmlns="http://www.w3.org/2000/svg" version="1.1" xmlns:xlink="http://www.w3.org/1999/xlink" xmlns:svgjs="http://svgjs.com/svgjs" width="1900" height="1080" preserveAspectRatio="none" viewBox="0 0 1900 1080"><g mask="url(&quot;#SvgjsMask1159&quot;)" fill="none"><rect width="1900" height="1080" x="0" y="0" fill="url(#SvgjsLinearGradient1160)"></rect><path d="M -368.54151020131434,751 C -273.54,623 -83.54,146.8 106.45848979868568,111 C 296.46,75.2 391.46,559.2 581.4584897986857,572 C 771.46,584.8 866.46,148.4 1056.4584897986856,175 C 1246.46,201.6 1341.46,649.4 1531.4584897986856,705 C 1721.46,760.6 1932.75,414.2 2006.4584897986856,453 C 2080.17,491.8 1921.29,809.8 1900,899" stroke="rgba(51, 121, 194, 0.58)" stroke-width="2"></path><path d="M -457.21692716194923,175 C -362.22,281.2 -172.22,707.8 17.783072838050764,706 C 207.78,704.2 302.78,145.6 492.78307283805077,166 C 682.78,186.4 777.78,741.2 967.7830728380508,808 C 1157.78,874.8 1252.78,495.8 1442.7830728380507,500 C 1632.78,504.2 1826.34,839.6 1917.7830728380507,829 C 2009.23,818.4 1903.56,523.4 1900,447" stroke="rgba(51, 121, 194, 0.58)" stroke-width="2"></path><path d="M -413.8027488598684,880 C -318.8,769.4 -128.8,374 61.19725114013159,327 C 251.2,280 346.2,676.2 536.1972511401316,645 C 726.2,613.8 821.2,129.4 1011.1972511401316,171 C 1201.2,212.6 1296.2,862 1486.1972511401316,853 C 1676.2,844 1878.44,155.4 1961.1972511401316,126 C 2043.96,96.6 1912.24,590 1900,706" stroke="rgba(51, 121, 194, 0.58)" stroke-width="2"></path><path d="M -93.1038448714765,367 C 1.9,485.6 191.9,973.6 381.8961551285235,960 C 571.9,946.4 666.9,344.6 856.8961551285236,299 C 1046.9,253.4 1141.9,767.8 1331.8961551285236,732 C 1521.9,696.2 1616.9,122.4 1806.8961551285236,120 C 1996.9,117.6 2263.28,673.4 2281.8961551285233,720 C 2300.52,766.6 1976.38,426.4 1900,353" stroke="rgba(51, 121, 194, 0.58)" stroke-width="2"></path><path d="M -484.50320093567785,210 C -389.5,310.4 -199.5,729.4 -9.503200935677846,712 C 180.5,694.6 275.5,121.2 465.49679906432215,123 C 655.5,124.8 750.5,714.2 940.4967990643222,721 C 1130.5,727.8 1225.5,138.8 1415.4967990643222,157 C 1605.5,175.2 1793.6,816.6 1890.4967990643222,812 C 1987.4,807.4 1898.1,269.6 1900,134" stroke="rgba(51, 121, 194, 0.58)" stroke-width="2"></path><path d="M -747.048435489024,662 C -652.05,607.2 -462.05,330.4 -272.048435489024,388 C -82.05,445.6 12.95,982 202.95156451097603,950 C 392.95,918 487.95,273 677.951564510976,228 C 867.95,183 962.95,708 1152.951564510976,725 C 1342.95,742 1478.54,305.2 1627.951564510976,313 C 1777.36,320.8 1845.59,673.8 1900,764" stroke="rgba(51, 121, 194, 0.58)" stroke-width="2"></path><path d="M -103.12827072088106,839 C -8.13,767.8 181.87,508.2 371.87172927911894,483 C 561.87,457.8 656.87,738.8 846.8717292791189,713 C 1036.87,687.2 1131.87,320.4 1321.8717292791189,354 C 1511.87,387.6 1606.87,878.4 1796.8717292791189,881 C 1986.87,883.6 2251.25,416.4 2271.871729279119,367 C 2292.5,317.6 1974.37,580.6 1900,634" stroke="rgba(51, 121, 194, 0.58)" stroke-width="2"></path><path d="M -277.69869941560546,608 C -182.7,510.4 7.3,117.2 197.3013005843945,120 C 387.3,122.8 482.3,560.6 672.3013005843945,622 C 862.3,683.4 957.3,401.4 1147.3013005843945,427 C 1337.3,452.6 1432.3,803 1622.3013005843945,750 C 1812.3,697 2041.76,137 2097.3013005843945,162 C 2152.84,187 1939.46,732.4 1900,875" stroke="rgba(51, 121, 194, 0.58)" stroke-width="2"></path></g><defs><mask id="SvgjsMask1159"><rect width="1900" height="1080" fill="#ffffff"></rect></mask><linearGradient x1="10.79%" y1="-18.98%" x2="89.21%" y2="118.98%" gradientUnits="userSpaceOnUse" id="SvgjsLinearGradient1160"><stop stop-color="#0e2a47" offset="0"></stop><stop stop-color="rgba(103, 0, 158, 1)" offset="1"></stop></linearGradient></defs></svg>