<svg xmlns="http://www.w3.org/2000/svg" version="1.1" xmlns:xlink="http://www.w3.org/1999/xlink" xmlns:svgjs="http://svgjs.com/svgjs" width="1440" height="560" preserveAspectRatio="none" viewBox="0 0 1440 560"><g mask="url(&quot;#SvgjsMask1638&quot;)" fill="none"><rect width="1440" height="560" x="0" y="0" fill="#0e2a47"></rect><path d="M 0,264 C 48,230 144,102.8 240,94 C 336,85.2 384,215.6 480,220 C 576,224.4 624,118 720,116 C 816,114 864,225.6 960,210 C 1056,194.4 1104,37.6 1200,38 C 1296,38.4 1392,177.2 1440,212L1440 560L0 560z" fill="rgba(103, 70, 117, 1)"></path><path d="M 0,389 C 36,409.4 108,508.4 180,491 C 252,473.6 288,313.6 360,302 C 432,290.4 468,414.8 540,433 C 612,451.2 648,373.2 720,393 C 792,412.8 828,546 900,532 C 972,518 1008,321.8 1080,323 C 1152,324.2 1188,525.4 1260,538 C 1332,550.6 1404,416.4 1440,386L1440 560L0 560z" fill="rgba(37, 19, 73, 1)"></path></g><defs><mask id="SvgjsMask1638"><rect width="1440" height="560" fill="#ffffff"></rect></mask></defs></svg>